<?xml version="1.0" standalone="no"?>
<!DOCTYPE svg PUBLIC "-//W3C//DTD SVG 20010904//EN"
 "http://www.w3.org/TR/2001/REC-SVG-20010904/DTD/svg10.dtd">
<svg version="1.0" xmlns="http://www.w3.org/2000/svg"
 width="512.000000pt" height="512.000000pt" viewBox="0 0 512.000000 512.000000"
 preserveAspectRatio="xMidYMid meet">

<g transform="translate(0.000000,512.000000) scale(0.100000,-0.100000)"
fill="#000000" stroke="none">
<path d="M950 3965 l0 -1155 1610 0 1610 0 0 1155 0 1155 -1610 0 -1610 0 0
-1155z m1610 0 l0 -705 -150 0 -150 0 0 205 0 205 -205 0 -205 0 0 -205 0
-205 -150 0 -150 0 0 705 0 705 505 0 505 0 0 -705z m1010 555 l0 -150 -100 0
-100 0 0 -405 0 -405 100 0 100 0 0 -150 0 -150 -355 0 -355 0 0 150 0 150
105 0 105 0 0 405 0 405 -105 0 -105 0 0 150 0 150 355 0 355 0 0 -150z"/>
<path d="M1850 4170 l0 -200 205 0 205 0 0 200 0 200 -205 0 -205 0 0 -200z"/>
<path d="M200 3965 l0 -715 223 2 222 3 0 710 0 710 -222 3 -223 2 0 -715z"/>
<path d="M4475 4668 c-3 -7 -4 -328 -3 -713 l3 -700 223 -3 222 -2 0 715 0
715 -220 0 c-167 0 -222 -3 -225 -12z"/>
<path d="M1610 2325 l0 -185 950 0 950 0 0 185 0 185 -950 0 -950 0 0 -185z"/>
<path d="M695 1825 c-354 -67 -605 -341 -649 -707 l-6 -48 435 0 435 0 0 385
0 385 -72 -1 c-40 0 -104 -7 -143 -14z"/>
<path d="M1210 920 l0 -920 1350 0 1350 0 0 920 0 920 -1350 0 -1350 0 0 -920z
m2020 0 l0 -150 -670 0 -670 0 0 150 0 150 670 0 670 0 0 -150z"/>
<path d="M4210 1457 l0 -387 434 0 434 0 -5 48 c-32 332 -272 614 -593 696
-36 9 -111 19 -167 23 l-103 6 0 -386z"/>
<path d="M220 385 l0 -385 345 0 345 0 0 385 0 385 -345 0 -345 0 0 -385z"/>
<path d="M4210 385 l0 -385 345 0 345 0 0 385 0 385 -345 0 -345 0 0 -385z"/>
</g>
</svg>
