<?xml version="1.0" standalone="no"?>
<!DOCTYPE svg PUBLIC "-//W3C//DTD SVG 20010904//EN"
 "http://www.w3.org/TR/2001/REC-SVG-20010904/DTD/svg10.dtd">
<svg version="1.0" xmlns="http://www.w3.org/2000/svg"
 width="512.000000pt" height="512.000000pt" viewBox="0 0 512.000000 512.000000"
 preserveAspectRatio="xMidYMid meet">

<g transform="translate(0.000000,512.000000) scale(0.100000,-0.100000)"
fill="#000000" stroke="none">
<path d="M4565 4953 c-121 -44 -205 -118 -258 -231 -29 -61 -32 -76 -32 -162
0 -52 2 -108 5 -124 5 -28 0 -32 -347 -238 l-353 -210 -37 32 c-49 44 -130 80
-209 93 -155 27 -321 -47 -419 -186 l-20 -29 -313 154 -313 153 4 30 c8 57
-12 149 -48 221 -125 254 -461 310 -670 113 -101 -96 -150 -241 -125 -370 7
-35 13 -73 14 -85 1 -17 -83 -84 -401 -322 l-402 -300 -40 18 c-207 100 -457
7 -560 -209 -34 -71 -36 -83 -36 -171 0 -108 16 -161 73 -249 111 -168 350
-229 537 -137 88 44 154 112 199 206 29 61 31 71 29 170 -1 58 -3 118 -5 133
-3 27 21 46 402 331 l405 302 65 -24 c56 -21 78 -23 160 -20 104 5 175 30 239
83 l33 29 358 -179 358 -179 12 -40 c29 -99 120 -198 228 -249 52 -24 83 -32
148 -35 237 -13 425 151 450 392 l7 65 378 226 c208 124 382 225 387 225 5 0
34 -11 64 -25 152 -69 346 -28 467 100 201 212 140 546 -123 675 -62 31 -80
35 -165 37 -73 3 -108 -1 -146 -14z"/>
<path d="M4366 3260 c-15 -5 -37 -17 -48 -27 -50 -45 -48 31 -48 -1534 0
-1448 0 -1462 20 -1494 39 -63 53 -65 407 -65 300 0 320 1 351 20 18 11 41 34
52 52 20 33 20 54 20 1488 0 1401 -1 1457 -19 1490 -10 19 -34 44 -52 55 -32
19 -54 20 -344 22 -170 1 -323 -2 -339 -7z"/>
<path d="M1489 2957 c-19 -12 -42 -38 -51 -57 -17 -33 -18 -118 -18 -1340 0
-1222 1 -1307 18 -1340 9 -19 32 -45 51 -57 34 -23 38 -23 360 -23 306 0 328
1 358 20 18 10 40 34 50 52 17 31 18 101 18 1348 0 1247 -1 1317 -18 1348 -10
18 -32 42 -50 52 -30 19 -52 20 -358 20 -322 0 -326 0 -360 -23z"/>
<path d="M2913 2390 c-18 -10 -40 -34 -50 -52 -17 -31 -18 -90 -18 -1063 0
-973 1 -1032 18 -1063 10 -18 32 -42 50 -52 30 -19 52 -20 358 -20 322 0 326
0 360 23 74 49 69 -26 69 1112 0 1138 5 1063 -69 1112 -34 23 -38 23 -360 23
-306 0 -328 -1 -358 -20z"/>
<path d="M68 1823 c-14 -9 -36 -33 -47 -54 -21 -36 -21 -45 -21 -780 0 -725 1
-745 20 -777 11 -18 34 -41 52 -52 31 -19 51 -20 351 -20 354 0 368 2 407 65
20 32 20 48 20 784 0 830 3 791 -63 831 -30 19 -52 20 -362 20 -289 -1 -333
-3 -357 -17z"/>
</g>
</svg>
