<?xml version="1.0" standalone="no"?>
<!DOCTYPE svg PUBLIC "-//W3C//DTD SVG 20010904//EN"
 "http://www.w3.org/TR/2001/REC-SVG-20010904/DTD/svg10.dtd">
<svg version="1.0" xmlns="http://www.w3.org/2000/svg"
 width="512.000000pt" height="512.000000pt" viewBox="0 0 512.000000 512.000000"
 preserveAspectRatio="xMidYMid meet">

<g transform="translate(0.000000,512.000000) scale(0.100000,-0.100000)"
fill="#000000" stroke="none">
<path d="M2132 5088 c-5 -18 -35 -140 -68 -270 l-58 -237 -76 -27 c-41 -14
-101 -39 -133 -55 -48 -25 -61 -28 -80 -18 -12 7 -118 70 -235 140 -117 71
-216 129 -220 129 -4 0 -139 -132 -301 -294 l-293 -293 142 -238 141 -238 -34
-76 c-19 -42 -44 -103 -56 -136 l-22 -61 -237 -58 c-130 -33 -252 -63 -269
-68 l-33 -9 0 -284 0 -285 758 0 758 0 -4 118 c-3 94 0 134 17 204 65 273 277
489 548 559 103 26 263 26 366 0 270 -70 483 -286 548 -557 17 -72 20 -111 17
-206 l-4 -118 758 0 758 0 0 285 0 284 -32 9 c-18 5 -140 35 -270 68 l-237 58
-22 61 c-12 33 -37 95 -56 137 l-35 76 142 237 143 237 -296 296 -296 296
-237 -143 -238 -142 -85 39 c-47 22 -109 47 -136 56 l-50 16 -59 238 c-33 130
-63 252 -68 270 l-9 32 -419 0 -419 0 -9 -32z"/>
<path d="M2428 3291 c-31 -10 -76 -30 -100 -44 -54 -31 -139 -120 -166 -173
-49 -97 -65 -222 -41 -320 l11 -44 428 0 428 0 11 44 c26 104 5 241 -52 338
-32 56 -121 139 -178 168 -101 52 -236 64 -341 31z"/>
<path d="M0 1205 l0 -1205 2560 0 2560 0 0 1205 0 1205 -2560 0 -2560 0 0
-1205z m1810 605 l0 -150 -225 0 -225 0 0 -150 0 -149 148 -3 147 -3 0 -150 0
-150 -147 -3 -148 -3 0 -149 0 -150 225 0 225 0 0 -150 0 -150 -377 2 -378 3
-3 740 c-1 407 0 746 3 753 3 9 89 12 380 12 l375 0 0 -150z m850 134 c136
-31 245 -120 309 -254 35 -72 36 -79 36 -185 0 -99 -3 -116 -28 -170 -15 -32
-40 -75 -54 -93 -21 -28 -24 -38 -15 -51 31 -43 67 -107 81 -144 13 -34 16
-96 19 -319 l3 -278 -150 0 -151 0 0 243 c0 271 -4 291 -69 334 -30 20 -47 23
-132 23 l-99 0 0 -300 0 -300 -150 0 -150 0 0 755 0 755 241 0 c181 0 257 -4
309 -16z m1186 5 c234 -43 400 -275 363 -509 -22 -145 -115 -272 -243 -335
-77 -38 -163 -54 -283 -55 l-73 0 0 -300 0 -300 -150 0 -150 0 0 755 0 755
238 0 c131 0 265 -5 298 -11z"/>
<path d="M2410 1511 l0 -151 99 0 c85 0 102 3 132 23 67 44 88 135 47 197 -43
63 -68 74 -178 78 l-100 4 0 -151z"/>
<path d="M3618 1654 c-5 -4 -8 -72 -8 -151 l0 -143 101 0 c83 0 107 4 133 19
92 58 90 200 -4 255 -25 15 -57 21 -125 24 -49 2 -93 1 -97 -4z"/>
</g>
</svg>
