<?xml version="1.0" encoding="UTF-8"?>
<svg version="1.1" xmlns="http://www.w3.org/2000/svg" width="512" height="512" viewBox="0 0 512 512">
<path d="M0 0 C0.83311203 -0.0071553 1.66622406 -0.01431061 2.52458191 -0.02168274 C5.27077529 -0.03855362 8.01533261 -0.01917905 10.76147461 0.00219727 C12.67288854 0.00136849 14.5843024 -0.0010912 16.49571228 -0.00511169 C20.49801126 -0.00796848 24.49975023 0.00672129 28.50195312 0.03417969 C33.63256294 0.06828534 38.76217297 0.06223548 43.89283085 0.04351711 C47.83825519 0.03295079 51.78344672 0.04188121 55.72884941 0.05690193 C57.62068427 0.06208535 59.51254342 0.0616 61.40437508 0.05535698 C64.0474595 0.04990827 66.68911019 0.07026706 69.33203125 0.09765625 C70.11395844 0.09113037 70.89588562 0.08460449 71.70150757 0.07788086 C75.22325643 0.13995726 77.22920112 0.35359286 80.08976746 2.4868927 C82.11499537 5.35978014 82.06044372 7.21570997 81.99194336 10.70922852 C81.97260742 12.44946289 81.97260742 12.44946289 81.95288086 14.22485352 C81.90260742 16.03469727 81.90260742 16.03469727 81.85131836 17.88110352 C81.83327148 19.10313477 81.81522461 20.32516602 81.79663086 21.58422852 C81.74949936 24.6006443 81.68371249 27.61547843 81.60131836 30.63110352 C82.27710938 30.61015625 82.95290039 30.58920898 83.64916992 30.56762695 C86.7164009 30.48438709 89.78339418 30.43241885 92.85131836 30.38110352 C93.91479492 30.34758789 94.97827148 30.31407227 96.07397461 30.27954102 C97.0987793 30.26665039 98.12358398 30.25375977 99.17944336 30.24047852 C100.59338379 30.20905762 100.59338379 30.20905762 102.03588867 30.17700195 C105.35657143 30.76478935 106.49419119 32.0631542 108.60131836 34.63110352 C110.08335615 37.59517911 109.72052662 40.25189517 109.71484375 43.55932617 C109.71498978 44.27162888 109.7151358 44.98393158 109.71528625 45.71781921 C109.71458847 48.07696558 109.70680233 50.43603341 109.69897461 52.79516602 C109.69710995 54.42898516 109.69568628 56.06280486 109.69468689 57.69662476 C109.69086545 62.00058531 109.68103834 66.30451222 109.66998291 70.60845947 C109.65976078 74.99881536 109.65518755 79.38917667 109.65014648 83.77954102 C109.63941575 92.39674569 109.62182195 101.01391654 109.60131836 109.63110352 C118.18131836 109.63110352 126.76131836 109.63110352 135.60131836 109.63110352 C135.60131836 79.27110352 135.60131836 48.91110352 135.60131836 17.63110352 C133.62131836 17.30110352 131.64131836 16.97110352 129.60131836 16.63110352 C126.78300051 14.03528444 125.74567797 12.40102146 125.03881836 8.63110352 C125.80340872 4.55328828 127.42530353 3.23969541 130.60131836 0.63110352 C133.60536194 0.00291443 133.60536194 0.00291443 136.98046875 0 C138.24850845 -0.01253311 139.51654816 -0.02506622 140.82301331 -0.03797913 C142.19834423 -0.02571172 143.57366529 -0.01229184 144.94897461 0.00219727 C146.36714357 0.00136808 147.78531244 -0.00109318 149.20347595 -0.00511169 C152.17012592 -0.0079653 155.13601905 0.00668871 158.10253906 0.03417969 C161.90150845 0.06829454 165.69912786 0.0622307 169.49816227 0.04351711 C172.42450683 0.03294047 175.35053812 0.04189011 178.27685356 0.05690193 C179.6774547 0.06207734 181.07808864 0.06160968 182.47868538 0.05535698 C184.43635425 0.04989667 186.39403943 0.07314815 188.3515625 0.09765625 C189.46455215 0.10385483 190.57754181 0.11005341 191.72425842 0.11643982 C195.27265852 0.75119639 196.43149729 1.79989388 198.60131836 4.63110352 C199.8046626 8.76759935 200.11716081 10.6819534 198.03881836 14.50610352 C195.60131836 16.63110352 195.60131836 16.63110352 189.60131836 17.63110352 C189.60131836 47.99110352 189.60131836 78.35110352 189.60131836 109.63110352 C202.14131836 109.63110352 214.68131836 109.63110352 227.60131836 109.63110352 C232.60131836 114.63110352 232.60131836 114.63110352 233.2165575 116.88616657 C233.21194854 117.65586371 233.20733957 118.42556086 233.20259094 119.21858215 C233.21290092 120.5541214 233.21290092 120.5541214 233.22341919 121.91664124 C233.20544281 122.8804924 233.18746643 123.84434357 233.16894531 124.83740234 C233.16967545 125.86225739 233.17040558 126.88711243 233.17115784 127.94302368 C233.16767873 131.32526865 233.12880022 134.70613083 233.08959961 138.08813477 C233.08027269 140.43510689 233.07315601 142.78208876 233.06816101 145.1290741 C233.049082 151.30246924 232.99997227 157.47527501 232.94464111 163.6484375 C232.8934688 169.94921903 232.87065121 176.2500959 232.84545898 182.55102539 C232.79185534 194.9113102 232.70653071 207.27115782 232.60131836 219.63110352 C233.4708313 219.59182739 233.4708313 219.59182739 234.35791016 219.55175781 C237.00126711 219.44739739 239.64419035 219.38266025 242.28881836 219.31860352 C243.20083008 219.27670898 244.1128418 219.23481445 245.05249023 219.19165039 C249.68430778 219.10743553 251.87989211 219.09946844 255.70640564 221.91931152 C258.18054259 225.46002594 258.30664677 228.42609462 258.23022461 232.59985352 C258.23263657 233.35778198 258.23504852 234.11571045 258.23753357 234.89660645 C258.23655732 236.49354299 258.22321645 238.09051431 258.19824219 239.68725586 C258.16391643 242.12414117 258.17759446 244.5573996 258.19702148 246.99438477 C258.1901226 248.5503897 258.18044981 250.10638532 258.16772461 251.66235352 C258.17268448 252.38644409 258.17764435 253.11053467 258.18275452 253.85656738 C258.10440976 257.24145937 257.68916309 259.47636797 256.00976562 262.43457031 C253.1024608 265.08606768 250.1412793 266.42080625 246.49975586 267.74438477 C245.8220816 268.00366257 245.14440735 268.26294037 244.44619751 268.53007507 C242.29464857 269.34882789 240.13577401 270.14597325 237.97631836 270.94360352 C236.51748587 271.49762949 235.05914631 272.05295526 233.60131836 272.60961914 C232.21373097 273.13485419 230.82572393 273.65898224 229.43725586 274.18188477 C228.78203949 274.42868484 228.12682312 274.67548492 227.45175171 274.92976379 C222.83928505 276.63110352 222.83928505 276.63110352 220.60131836 276.63110352 C220.45436523 277.31172852 220.30741211 277.99235352 220.15600586 278.69360352 C216.99277519 292.36457743 211.77982 304.8010596 205.33569336 317.20532227 C204.76334961 318.33583008 204.19100586 319.46633789 203.60131836 320.63110352 C203.18164795 321.3902002 202.76197754 322.14929688 202.32958984 322.93139648 C201.28524564 326.80278711 202.50725928 328.67232246 204.21459961 332.25219727 C204.50360641 332.87457779 204.79261322 333.49695831 205.09037781 334.13819885 C206.01506586 336.12324065 206.96282098 338.09604856 207.91381836 340.06860352 C208.85042656 342.03902648 209.78175154 344.01163557 210.7051239 345.98829651 C211.54702438 347.78627291 212.40445893 349.57695124 213.26269531 351.3671875 C214.59016927 354.60391909 215.45103529 357.13561963 215.60131836 360.63110352 C213.7026266 364.33797124 211.37268052 367.10836513 208.43701172 370.03833008 C207.60282211 370.87559631 206.76863251 371.71286255 205.90916443 372.57550049 C204.56375328 373.91013336 204.56375328 373.91013336 203.19116211 375.27172852 C202.26791641 376.19451599 201.34467072 377.11730347 200.39344788 378.0680542 C198.44555381 380.01438927 196.49436163 381.95733353 194.54052734 383.89770508 C192.03465894 386.38652537 189.53548304 388.88193706 187.0385046 391.379673 C184.65467973 393.76316106 182.26662373 396.14238469 179.87866211 398.52172852 C178.97969711 399.41958069 178.08073212 400.31743286 177.15452576 401.24249268 C176.32348831 402.06715027 175.49245087 402.89180786 174.63623047 403.74145508 C173.90359482 404.47027893 173.17095917 405.19910278 172.41612244 405.95001221 C169.59914417 408.55943862 168.8466287 408.63466981 164.83959961 408.57641602 C157.97645571 407.72178628 151.96304196 404.45347634 145.78881836 401.50610352 C143.39228213 400.36477494 140.99006089 399.24013298 138.58178711 398.12329102 C137.52886475 397.62168457 136.47594238 397.12007813 135.39111328 396.60327148 C131.60306388 395.28323887 130.06517794 395.97846035 126.53686523 397.55151367 C125.80532227 397.92066895 125.0737793 398.28982422 124.32006836 398.67016602 C123.48725342 399.08282715 122.65443848 399.49548828 121.79638672 399.9206543 C120.90701416 400.36135254 120.0176416 400.80205078 119.10131836 401.25610352 C111.71262572 404.84850335 104.29722519 408.04784484 96.53881836 410.75610352 C95.70092773 411.05081543 94.86303711 411.34552734 93.99975586 411.64916992 C90.22622666 412.92592208 87.66249082 413.63110352 83.60131836 413.63110352 C83.1978418 414.8621582 82.79436523 416.09321289 82.37866211 417.36157227 C80.40937588 423.26019091 78.30757992 429.10641637 76.16381836 434.94360352 C75.59050781 436.54945313 75.59050781 436.54945313 75.00561523 438.18774414 C74.62598633 439.21706055 74.24635742 440.24637695 73.85522461 441.30688477 C73.51821533 442.23412354 73.18120605 443.1613623 72.83398438 444.11669922 C71.40159173 447.03850787 70.1418201 448.58696509 67.60131836 450.63110352 C64.6036377 451.14576721 64.6036377 451.14576721 61.06030273 451.16455078 C60.41265457 451.17316635 59.76500641 451.18178192 59.09773254 451.19065857 C56.96310127 451.2133081 54.82978383 451.20658334 52.69506836 451.19750977 C51.2082073 451.20274561 49.72134957 451.20902194 48.23449707 451.21629333 C45.12077181 451.22669534 42.00750361 451.22213906 38.89379883 451.20751953 C34.90524611 451.19032442 30.91813299 451.21383461 26.92974091 451.24900913 C23.86015291 451.2709779 20.79090975 451.26954326 17.7212677 451.26124382 C16.25086385 451.26042413 14.78043473 451.26729117 13.31010437 451.28201485 C11.25328253 451.2994555 9.19905192 451.28492993 7.14233398 451.26220703 C5.97303345 451.26124527 4.80373291 451.26028351 3.59899902 451.2592926 C0.60131836 450.63110352 0.60131836 450.63110352 -1.73406982 448.29705811 C-3.70623959 445.13853491 -4.60238717 442.23742403 -5.57055664 438.64282227 C-9.37022058 424.16871376 -9.37022058 424.16871376 -17.9987793 412.54467773 C-23.81923426 409.65683279 -30.00023552 408.50964248 -36.34985352 407.33422852 C-41.30901397 406.19054001 -45.684603 404.03418846 -50.21118164 401.75610352 C-50.99887939 401.37276855 -51.78657715 400.98943359 -52.59814453 400.59448242 C-55.68549321 399.07467314 -58.52793519 397.54493448 -61.39868164 395.63110352 C-65.48418961 395.99444263 -68.86334094 397.62550187 -72.54711914 399.35375977 C-73.71758789 399.89194336 -74.88805664 400.43012695 -76.09399414 400.98461914 C-77.93519539 401.83729052 -79.77426993 402.69388084 -81.60961914 403.55908203 C-83.39579267 404.39826737 -85.19015678 405.21994815 -86.98461914 406.04125977 C-88.04729004 406.53762939 -89.10996094 407.03399902 -90.20483398 407.54541016 C-94.06055754 408.8560968 -96.35316283 409.30480781 -100.39868164 408.63110352 C-103.40989563 406.64081737 -105.86173223 404.18582165 -108.39868164 401.63110352 C-109.09734344 400.95518158 -109.79600525 400.27925964 -110.51583862 399.58285522 C-112.77796361 397.3837357 -115.01064055 395.15785296 -117.23852539 392.92407227 C-118.449869 391.71416374 -118.449869 391.71416374 -119.6856842 390.47981262 C-121.3768081 388.78936466 -123.0666882 387.09767157 -124.75537109 385.40478516 C-127.34952866 382.80522872 -129.94903589 380.21110677 -132.54907227 377.61743164 C-134.19587775 375.9699661 -135.8423734 374.32219078 -137.48852539 372.67407227 C-138.2675975 371.89702438 -139.04666962 371.1199765 -139.84934998 370.31938171 C-140.56422073 369.6013588 -141.27909149 368.88333588 -142.015625 368.14355469 C-142.64657578 367.51180832 -143.27752655 366.88006195 -143.92759705 366.22917175 C-146.11957689 363.84798077 -146.38963699 362.74879227 -146.64331055 359.44799805 C-146.36903434 355.1685228 -145.30049953 352.4324643 -143.48461914 348.56079102 C-142.88287474 347.23925924 -142.28131773 345.91764213 -141.67993164 344.59594727 C-140.72601362 342.54177152 -139.76632649 340.4904729 -138.80200195 338.44116211 C-137.86880117 336.44586279 -136.95723259 334.44170207 -136.04711914 332.43579102 C-135.4920166 331.24969238 -134.93691406 330.06359375 -134.36499023 328.84155273 C-133.12106985 325.72707887 -133.12106985 325.72707887 -134.11547852 322.94335938 C-134.53893555 322.18031494 -134.96239258 321.41727051 -135.39868164 320.63110352 C-135.85718506 319.67530396 -135.85718506 319.67530396 -136.32495117 318.70019531 C-136.64061035 318.08313721 -136.95626953 317.4660791 -137.28149414 316.83032227 C-137.81613281 315.75355225 -137.81613281 315.75355225 -138.36157227 314.6550293 C-139.16172814 313.04631254 -139.97086192 311.44204032 -140.78735352 309.84155273 C-143.11423972 305.07464306 -144.69870154 300.73956167 -145.60961914 295.50219727 C-147.44463248 284.7249249 -147.44463248 284.7249249 -154.03741455 276.45172119 C-162.10936506 271.75048674 -171.28026879 268.87185308 -180.23200989 266.34046936 C-186.26671871 264.59541777 -186.26671871 264.59541777 -188.39868164 261.63110352 C-190.16502796 256.33206456 -189.62428796 250.61201747 -189.63891602 245.0625 C-189.64860185 242.83693789 -189.67962696 240.6123076 -189.71118164 238.38696289 C-189.71771436 236.96183814 -189.72296378 235.53670681 -189.72680664 234.11157227 C-189.73615234 232.8214624 -189.74549805 231.53135254 -189.75512695 230.20214844 C-189.36920014 226.33574331 -188.43272492 223.92079403 -186.39868164 220.63110352 C-183.99808347 219.43080443 -182.50507515 219.51650609 -179.82836914 219.53344727 C-178.9324707 219.53666992 -178.03657227 219.53989258 -177.11352539 219.54321289 C-176.17637695 219.5515918 -175.23922852 219.5599707 -174.27368164 219.56860352 C-173.32879883 219.57311523 -172.38391602 219.57762695 -171.41040039 219.58227539 C-169.07309777 219.59407995 -166.73592103 219.61054593 -164.39868164 219.63110352 C-164.40312286 218.33706604 -164.40756409 217.04302856 -164.41213989 215.70977783 C-164.4526497 203.52606591 -164.48264861 191.34236761 -164.50230598 179.15860367 C-164.51275168 172.89452563 -164.52692531 166.63050187 -164.54956055 160.36645508 C-164.57126076 154.32347834 -164.58324434 148.28055389 -164.58843613 142.2375412 C-164.59213695 139.929819 -164.59936353 137.62209972 -164.61014175 135.31439972 C-164.62461904 132.08689649 -164.62666114 128.85961045 -164.62573242 125.63208008 C-164.63292297 124.67398438 -164.64011353 123.71588867 -164.64752197 122.72875977 C-164.64477264 121.84818909 -164.64202332 120.96761841 -164.63919067 120.06036377 C-164.64103426 119.29711918 -164.64287785 118.53387459 -164.6447773 117.74750137 C-164.3575955 115.27776681 -163.72885465 113.72786617 -162.39868164 111.63110352 C-159.19822688 109.49746701 -158.41238728 109.38438123 -154.74365234 109.40405273 C-153.80290359 109.4042038 -152.86215485 109.40435486 -151.89289856 109.4045105 C-150.88031479 109.41483307 -149.86773102 109.42515564 -148.82446289 109.43579102 C-147.26600899 109.44003586 -147.26600899 109.44003586 -145.67607117 109.44436646 C-142.35432467 109.4555707 -139.03284679 109.48067588 -135.71118164 109.50610352 C-133.46053449 109.51613299 -131.20988312 109.5252589 -128.95922852 109.53344727 C-123.43895442 109.55551082 -117.91883722 109.5889908 -112.39868164 109.63110352 C-112.41439209 108.53644775 -112.43010254 107.44179199 -112.44628906 106.31396484 C-112.50070274 102.24193721 -112.5350732 98.16994155 -112.56347656 94.09765625 C-112.57853717 92.33718456 -112.5989899 90.57675022 -112.625 88.81640625 C-112.66150393 86.28188849 -112.67843518 83.747868 -112.69165039 81.21313477 C-112.71487617 80.03784966 -112.71487617 80.03784966 -112.73857117 78.83882141 C-112.73997817 74.24147077 -112.29699541 71.25770499 -109.39868164 67.63110352 C-105.84612301 65.2627311 -104.58826393 65.23784959 -100.39868164 65.63110352 C-97.91508906 66.50799028 -95.63170165 67.4251602 -93.25415039 68.52563477 C-92.22382439 68.98591316 -92.22382439 68.98591316 -91.17268372 69.45549011 C-88.97233854 70.44115066 -86.77922779 71.44182372 -84.58618164 72.44360352 C-83.18756402 73.07420631 -81.78847776 73.70377077 -80.38891602 74.33227539 C-78.21209692 75.31035021 -76.03584649 76.28957042 -73.86154175 77.27322388 C-63.0799477 82.14754802 -52.23460667 86.87915255 -41.39868164 91.63110352 C-41.39503601 90.92588562 -41.39139038 90.22066772 -41.38763428 89.49407959 C-41.34974491 82.84335753 -41.29288225 76.19309884 -41.2147789 69.54272079 C-41.17529324 66.12375742 -41.14311065 62.70505198 -41.12768555 59.28588867 C-41.10962473 55.3537498 -41.05967813 51.42232586 -41.00805664 47.49047852 C-41.006828 46.26431824 -41.00559937 45.03815796 -41.0043335 43.77484131 C-40.98461487 42.63396057 -40.96489624 41.49307983 -40.94458008 40.31762695 C-40.93569763 39.31391052 -40.92681519 38.31019409 -40.91766357 37.27606201 C-40.25931951 33.92085328 -39.05457393 32.7208385 -36.39868164 30.63110352 C-33.83325195 30.17700195 -33.83325195 30.17700195 -30.97680664 30.24047852 C-29.43959961 30.25981445 -29.43959961 30.25981445 -27.87133789 30.27954102 C-26.27612305 30.32981445 -26.27612305 30.32981445 -24.64868164 30.38110352 C-23.03026367 30.40817383 -23.03026367 30.40817383 -21.37915039 30.43579102 C-18.71809376 30.48288936 -16.0588391 30.54864751 -13.39868164 30.63110352 C-13.42486572 29.89996338 -13.4510498 29.16882324 -13.47802734 28.41552734 C-13.58218308 25.0917727 -13.64706785 21.76836158 -13.71118164 18.44360352 C-13.77402344 16.71787109 -13.77402344 16.71787109 -13.83813477 14.95727539 C-13.85424805 13.84545898 -13.87036133 12.73364258 -13.88696289 11.58813477 C-13.91314697 10.56695557 -13.93933105 9.54577637 -13.96630859 8.49365234 C-12.4696406 0.94593954 -6.74242086 -0.10108146 0 0 Z M3.60131836 17.63110352 C3.60131836 21.92110352 3.60131836 26.21110352 3.60131836 30.63110352 C23.73131836 30.63110352 43.86131836 30.63110352 64.60131836 30.63110352 C64.60131836 26.34110352 64.60131836 22.05110352 64.60131836 17.63110352 C44.47131836 17.63110352 24.34131836 17.63110352 3.60131836 17.63110352 Z M152.60131836 17.63110352 C152.60131836 25.88110352 152.60131836 34.13110352 152.60131836 42.63110352 C159.20131836 42.63110352 165.80131836 42.63110352 172.60131836 42.63110352 C172.60131836 34.38110352 172.60131836 26.13110352 172.60131836 17.63110352 C166.00131836 17.63110352 159.40131836 17.63110352 152.60131836 17.63110352 Z M-23.39868164 47.63110352 C-23.39868164 104.39110352 -23.39868164 161.15110352 -23.39868164 219.63110352 C14.88131836 219.63110352 53.16131836 219.63110352 92.60131836 219.63110352 C92.60131836 162.87110352 92.60131836 106.11110352 92.60131836 47.63110352 C54.32131836 47.63110352 16.04131836 47.63110352 -23.39868164 47.63110352 Z M152.60131836 59.63110352 C152.60131836 62.27110352 152.60131836 64.91110352 152.60131836 67.63110352 C159.20131836 67.63110352 165.80131836 67.63110352 172.60131836 67.63110352 C172.60131836 64.99110352 172.60131836 62.35110352 172.60131836 59.63110352 C166.00131836 59.63110352 159.40131836 59.63110352 152.60131836 59.63110352 Z M152.60131836 84.63110352 C152.60131836 92.88110352 152.60131836 101.13110352 152.60131836 109.63110352 C159.20131836 109.63110352 165.80131836 109.63110352 172.60131836 109.63110352 C172.60131836 101.38110352 172.60131836 93.13110352 172.60131836 84.63110352 C166.00131836 84.63110352 159.40131836 84.63110352 152.60131836 84.63110352 Z M-95.39868164 87.63110352 C-95.39868164 131.19110352 -95.39868164 174.75110352 -95.39868164 219.63110352 C-77.24868164 219.63110352 -59.09868164 219.63110352 -40.39868164 219.63110352 C-40.39868164 183.66110352 -40.39868164 147.69110352 -40.39868164 110.63110352 C-67.06052868 95.13696816 -67.06052868 95.13696816 -95.39868164 87.63110352 Z M-147.39868164 126.63110352 C-147.39868164 157.32110352 -147.39868164 188.01110352 -147.39868164 219.63110352 C-135.84868164 219.63110352 -124.29868164 219.63110352 -112.39868164 219.63110352 C-112.39868164 188.94110352 -112.39868164 158.25110352 -112.39868164 126.63110352 C-123.94868164 126.63110352 -135.49868164 126.63110352 -147.39868164 126.63110352 Z M109.60131836 126.63110352 C109.60131836 157.32110352 109.60131836 188.01110352 109.60131836 219.63110352 C144.58131836 219.63110352 179.56131836 219.63110352 215.60131836 219.63110352 C215.60131836 188.94110352 215.60131836 158.25110352 215.60131836 126.63110352 C180.62131836 126.63110352 145.64131836 126.63110352 109.60131836 126.63110352 Z M-172.39868164 236.63110352 C-172.39868164 241.25110352 -172.39868164 245.87110352 -172.39868164 250.63110352 C-167.02349661 253.19835607 -161.68793256 255.55299624 -156.09790039 257.60375977 C-155.16163818 257.94858398 -154.22537598 258.2934082 -153.26074219 258.64868164 C-151.36903814 259.33933193 -149.47337134 260.01923341 -147.57373047 260.68774414 C-146.69096436 261.0106543 -145.80819824 261.33356445 -144.89868164 261.66625977 C-144.10461914 261.94864502 -143.31055664 262.23103027 -142.49243164 262.52197266 C-139.32330469 264.2007674 -137.88769254 266.35502376 -136.6184082 269.66723633 C-136.42730469 270.38234375 -136.23620117 271.09745117 -136.03930664 271.83422852 C-135.70225708 273.04502075 -135.70225708 273.04502075 -135.35839844 274.28027344 C-135.12419189 275.13854736 -134.88998535 275.99682129 -134.64868164 276.88110352 C-131.48501841 287.87699233 -127.44663238 298.11130217 -121.95336914 308.15454102 C-121.33328979 309.29113159 -121.33328979 309.29113159 -120.70068359 310.45068359 C-119.8971995 311.90461474 -119.07883816 313.3504618 -118.24316406 314.78613281 C-117.87296143 315.44782471 -117.50275879 316.1095166 -117.12133789 316.79125977 C-116.78884033 317.36497314 -116.45634277 317.93868652 -116.11376953 318.52978516 C-114.18001049 324.21222425 -115.57153972 328.85735037 -118.05883789 334.08032227 C-118.60475586 335.25788086 -119.15067383 336.43543945 -119.71313477 337.64868164 C-120.29443928 338.87264424 -120.87713653 340.09594629 -121.46118164 341.31860352 C-122.61164943 343.7333495 -123.74537008 346.15382833 -124.87133789 348.58032227 C-125.37930908 349.64597412 -125.88728027 350.71162598 -126.41064453 351.80957031 C-127.48656873 354.8820823 -127.48741304 355.67142094 -126.39868164 358.63110352 C-125.11119694 360.34911689 -125.11119694 360.34911689 -123.43945312 361.9309082 C-122.81888535 362.55124939 -122.19831757 363.17159058 -121.5589447 363.81072998 C-120.88601883 364.468172 -120.21309296 365.12561401 -119.51977539 365.80297852 C-118.83311295 366.48539612 -118.1464505 367.16781372 -117.4389801 367.87091064 C-115.24498749 370.04811548 -113.04079248 372.21465632 -110.83618164 374.38110352 C-109.3465653 375.85567323 -107.85762444 377.33092564 -106.36938477 378.80688477 C-102.72027356 382.42292528 -99.06197785 386.02943639 -95.39868164 389.63110352 C-90.62466216 388.09628835 -85.94099913 386.57450915 -81.42602539 384.36938477 C-80.17015625 383.77480469 -80.17015625 383.77480469 -78.88891602 383.16821289 C-77.17932886 382.34808195 -75.47359779 381.51986659 -73.77172852 380.68383789 C-68.71778814 378.31078493 -64.04252079 376.29715294 -58.39868164 377.63110352 C-54.64879922 379.20272074 -51.17424612 381.17609603 -47.64868164 383.19360352 C-36.01442003 389.56628459 -24.27674842 393.98773661 -11.59399414 397.76391602 C-10.51891602 398.09133789 -9.44383789 398.41875977 -8.33618164 398.75610352 C-7.43770508 399.00618164 -6.53922852 399.25625977 -5.61352539 399.51391602 C-0.94144163 401.87055791 0.50139852 407.60895711 2.30053711 412.24438477 C2.73970459 413.3688501 3.17887207 414.49331543 3.63134766 415.65185547 C4.17831299 417.06813232 4.72527832 418.48440918 5.28881836 419.94360352 C7.04194336 424.46047852 8.79506836 428.97735352 10.60131836 433.63110352 C26.11131836 433.63110352 41.62131836 433.63110352 57.60131836 433.63110352 C61.2252406 424.96040367 61.2252406 424.96040367 64.59350586 416.18969727 C64.90674805 415.33956055 65.21999023 414.48942383 65.54272461 413.61352539 C66.17559637 411.88835403 66.78964769 410.15618312 67.38647461 408.41821289 C68.95086491 404.26459701 69.77526997 402.13585195 73.64428711 399.77172852 C74.95378172 399.35993885 76.27461196 398.98351943 77.60131836 398.63110352 C79.39289039 398.04755802 81.18314713 397.45996625 82.97241211 396.86938477 C83.95137451 396.55912354 84.93033691 396.2488623 85.93896484 395.92919922 C99.63861954 391.57340604 112.34592236 386.35015607 124.41381836 378.44360352 C130.69718618 376.10978118 135.24339814 377.69385482 141.14819336 380.29125977 C143.55749245 381.41127971 145.95740121 382.54198186 148.35131836 383.69360352 C150.75679434 384.84433807 153.16834188 385.97770574 155.58569336 387.10375977 C156.64498047 387.61173096 157.70426758 388.11970215 158.7956543 388.64306641 C161.8588689 389.721802 162.64721411 389.7172522 165.60131836 388.63110352 C167.31933173 387.34361881 167.31933173 387.34361881 168.90112305 385.671875 C169.52146423 385.05130722 170.14180542 384.43073944 170.78094482 383.79136658 C171.43838684 383.1184407 172.09582886 382.44551483 172.77319336 381.75219727 C173.45561096 381.06553482 174.13802856 380.37887238 174.84112549 379.67140198 C177.01833032 377.47740936 179.18487117 375.27321436 181.35131836 373.06860352 C182.82588807 371.57898718 184.30114049 370.09004632 185.77709961 368.60180664 C189.39314012 364.95269543 192.99965124 361.29439973 196.60131836 357.63110352 C195.50954434 354.95580289 194.41545546 352.28148706 193.32006836 349.60766602 C193.01552734 348.86073486 192.71098633 348.11380371 192.3972168 347.34423828 C189.95984619 341.40234142 187.32386841 335.58219112 184.57006836 329.77954102 C182.83401586 324.13737039 184.21977021 320.08859824 186.85913086 315.02172852 C187.80852164 313.30466694 188.76458913 311.59128484 189.72631836 309.88110352 C193.47863882 302.96586096 196.8538671 296.09405243 199.53881836 288.69360352 C199.82152588 287.91581543 200.1042334 287.13802734 200.39550781 286.33666992 C201.65002391 282.75786592 202.7439146 279.21403361 203.56225586 275.51000977 C203.84327148 274.2712207 204.12428711 273.03243164 204.41381836 271.75610352 C204.60588867 270.68618164 204.79795898 269.61625977 204.99584961 268.51391602 C209.09368568 261.15575782 221.16206781 258.72841331 228.66381836 255.88110352 C230.71808664 255.09695417 232.77152236 254.31061896 234.82397461 253.52172852 C235.71866455 253.18173828 236.61335449 252.84174805 237.53515625 252.49145508 C239.55514393 251.80426437 239.55514393 251.80426437 240.60131836 250.63110352 C240.67403577 248.27796797 240.68502704 245.92276683 240.66381836 243.56860352 C240.6502832 241.63307617 240.6502832 241.63307617 240.63647461 239.65844727 C240.62487305 238.65942383 240.61327148 237.66040039 240.60131836 236.63110352 C226.2763741 236.60777331 211.95143277 236.59019016 197.62647343 236.57929134 C190.97558306 236.57406177 184.3247105 236.5669628 177.67382812 236.55566406 C171.26128959 236.5448378 164.84876332 236.53882724 158.43621635 236.53622627 C155.98367558 236.53437155 153.53113551 236.53075005 151.07859993 236.52537346 C147.65655159 236.5181665 144.23455465 236.51711243 140.8125 236.51757812 C139.78751404 236.51398285 138.76252808 236.51038757 137.70648193 236.50668335 C136.77955032 236.50805801 135.85261871 236.50943268 134.89759827 236.510849 C133.68221422 236.50946631 133.68221422 236.50946631 132.44227695 236.50805569 C130.58358397 236.42937941 130.58358397 236.42937941 129.60131836 237.63110352 C129.30574656 239.28332859 129.01551418 240.93669481 128.75292969 242.59448242 C124.89427756 266.4797891 112.87391356 289.23468793 93.19506836 303.83813477 C92.33913086 304.42981445 91.48319336 305.02149414 90.60131836 305.63110352 C89.66288086 306.2949707 88.72444336 306.95883789 87.75756836 307.64282227 C66.49441461 321.73771585 40.48493168 326.06025073 15.41772461 321.90844727 C-4.57696217 317.81515002 -21.24382159 307.98428035 -35.39868164 293.63110352 C-36.54143555 292.50381836 -36.54143555 292.50381836 -37.70727539 291.35375977 C-43.56360859 285.22344607 -47.49317818 278.08095636 -51.39868164 270.63110352 C-51.8846582 269.72489258 -52.37063477 268.81868164 -52.87133789 267.88500977 C-57.72506802 258.13301987 -59.6204797 247.30031516 -61.39868164 236.63110352 C-98.02868164 236.63110352 -134.65868164 236.63110352 -172.39868164 236.63110352 Z M-44.39868164 236.63110352 C-42.04275289 257.83446223 -32.33657512 275.46409631 -16.15649414 289.46704102 C-4.75185477 298.41629061 8.1818188 304.64842233 22.60131836 306.63110352 C23.48819336 306.76516602 24.37506836 306.89922852 25.28881836 307.03735352 C45.76265213 309.4853119 66.56636181 303.35439424 82.78881836 290.75610352 C98.09638289 277.9675053 108.53063909 262.40981571 112.60131836 242.63110352 C112.60131836 240.65110352 112.60131836 238.67110352 112.60131836 236.63110352 C60.79131836 236.63110352 8.98131836 236.63110352 -44.39868164 236.63110352 Z " fill="#000000" transform="translate(216.398681640625,48.368896484375)"/>
<path d="M0 0 C1.08566757 -0.00744736 1.08566757 -0.00744736 2.19326782 -0.01504517 C4.59329167 -0.02967762 6.99324938 -0.03647106 9.39331055 -0.04199219 C11.05999249 -0.04774338 12.72667442 -0.05350112 14.39335632 -0.05926514 C17.8913097 -0.06977864 21.38924007 -0.07561881 24.88720703 -0.07910156 C29.36631788 -0.08458271 33.84512419 -0.10860099 38.3241396 -0.13707352 C41.76855858 -0.15571239 45.21290446 -0.16090619 48.65736961 -0.16243744 C50.30836843 -0.1654624 51.959366 -0.1734857 53.61031532 -0.18662262 C55.92273617 -0.20370727 58.23441637 -0.20179713 60.546875 -0.1953125 C61.86210648 -0.19895813 63.17733795 -0.20260376 64.53242493 -0.20635986 C68.1846942 0.18436544 70.07007067 0.94842923 72.9675293 3.16113281 C74.46037492 6.14682407 74.13222912 9.20959375 74.14453125 12.48486328 C74.15110245 13.23950867 74.15767365 13.99415405 74.16444397 14.77166748 C74.18418672 17.27388605 74.19584086 19.77604462 74.20581055 22.27832031 C74.20988607 23.13203342 74.2139616 23.98574654 74.21816063 24.86532974 C74.2390242 29.38271087 74.25332542 33.90006157 74.26269531 38.41748047 C74.27376856 43.08734158 74.30817789 47.75672733 74.34786701 52.42642021 C74.37398763 56.01405739 74.38238301 59.60158044 74.38597679 63.18930435 C74.39085352 64.91092265 74.40249834 66.6325355 74.42101479 68.35406113 C74.44531332 70.76263079 74.44445893 73.16995907 74.4375 75.57861328 C74.45031006 76.29044769 74.46312012 77.0022821 74.47631836 77.73568726 C74.44279416 80.91686348 74.13371506 82.90088077 72.40908813 85.60169983 C69.1138199 87.70640027 66.2226149 87.7295572 62.43261719 87.69458008 C61.30262047 87.70750343 61.30262047 87.70750343 60.14979553 87.72068787 C57.66290798 87.74336552 55.17714576 87.73660589 52.69018555 87.72753906 C50.95909795 87.73277418 49.22801322 87.73905025 47.49693298 87.74632263 C43.86956354 87.75673034 40.24258629 87.75216067 36.61523438 87.73754883 C31.96994732 87.72036703 27.32589786 87.743846 22.68074894 87.77903843 C19.10586879 87.80101551 15.53128457 87.79957016 11.95635796 87.79127312 C10.24395834 87.79045363 8.53153699 87.79731664 6.81920052 87.81204414 C4.42264244 87.82949531 2.02830526 87.81494569 -0.36816406 87.79223633 C-1.42580963 87.80977463 -1.42580963 87.80977463 -2.50482178 87.82766724 C-6.14533059 87.75759257 -7.97489058 87.20173641 -10.9720459 85.08824158 C-13.46811843 81.542237 -13.73507956 78.88443263 -13.66357422 74.69628906 C-13.67072952 73.96231903 -13.67788483 73.228349 -13.68525696 72.47213745 C-13.70211247 70.05532853 -13.6827623 67.64038303 -13.66137695 65.22363281 C-13.66220595 63.5388168 -13.66466651 61.85400087 -13.66868591 60.16918945 C-13.67154173 56.64184156 -13.65686446 53.1151294 -13.62939453 49.58789062 C-13.59531158 45.07164552 -13.6013317 40.55653694 -13.62005711 36.04023743 C-13.63063725 32.56228196 -13.62168017 29.08458992 -13.60667229 25.60665894 C-13.60149743 23.94172956 -13.60196383 22.2767726 -13.60821724 20.61184692 C-13.61368197 18.28262402 -13.59325696 15.95501538 -13.56591797 13.62597656 C-13.57244385 12.94115204 -13.57896973 12.25632751 -13.58569336 11.55075073 C-13.492067 6.84809173 -12.33739625 4.47283316 -9.0324707 1.16113281 C-6.04810261 -0.33105124 -3.32922403 0.01731503 0 0 Z M3.9675293 17.16113281 C3.9675293 34.65113281 3.9675293 52.14113281 3.9675293 70.16113281 C21.4575293 70.16113281 38.9475293 70.16113281 56.9675293 70.16113281 C56.9675293 52.67113281 56.9675293 35.18113281 56.9675293 17.16113281 C39.4775293 17.16113281 21.9875293 17.16113281 3.9675293 17.16113281 Z " fill="#000000" transform="translate(220.032470703125,109.8388671875)"/>
<path d="M0 0 C0.72316406 0.0103125 1.44632812 0.020625 2.19140625 0.03125 C8.71752049 1.39322167 11.73487787 6.1096991 15.4375 11.1875 C16.5758904 12.71520935 17.71658215 14.24120607 18.859375 15.765625 C19.44396484 16.54615234 20.02855469 17.32667969 20.63085938 18.13085938 C24.09977944 22.67983238 27.74624967 27.08484964 31.38671875 31.49682617 C35.6702569 36.7077076 36.87003967 39.27400855 36.7734375 45.94921875 C36.20111208 50.29489895 34.84784918 51.72909129 31.4375 54.5 C28.7729785 55.09576001 26.16620698 55.25117324 23.4375 55.5 C23.44638245 56.17794113 23.45526489 56.85588226 23.4644165 57.55436707 C23.5529149 64.61078459 23.61324506 71.66704445 23.65722656 78.72387695 C23.67734098 81.35740563 23.70463604 83.99088966 23.73925781 86.62426758 C23.78778088 90.40978007 23.81047112 94.194702 23.828125 97.98046875 C23.84877014 99.15772018 23.86941528 100.33497162 23.89068604 101.54789734 C23.89291627 109.67357111 23.89291627 109.67357111 21.66308594 113.7199707 C16.24696271 118.05179985 8.85380644 116.72206149 2.22070312 116.74023438 C0.07642779 116.74993698 -2.0668869 116.78098433 -4.2109375 116.8125 C-5.58593185 116.81903147 -6.96093301 116.82428138 -8.3359375 116.828125 C-10.19871338 116.84214355 -10.19871338 116.84214355 -12.09912109 116.85644531 C-15.98158458 116.4568685 -18.32285868 115.67159519 -21.5625 113.5 C-23.36987089 109.93752549 -23.80847786 107.03236213 -23.78955078 103.06713867 C-23.78939972 102.00641647 -23.78924866 100.94569427 -23.78909302 99.85282898 C-23.77877045 98.7193251 -23.76844788 97.58582123 -23.7578125 96.41796875 C-23.7549826 95.24865311 -23.75215271 94.07933746 -23.74923706 92.87458801 C-23.73805562 89.14545392 -23.71295434 85.41656132 -23.6875 81.6875 C-23.67746759 79.15690451 -23.66834219 76.62630526 -23.66015625 74.09570312 C-23.63812292 67.89705323 -23.60466534 61.69854387 -23.5625 55.5 C-24.65820312 55.37496094 -25.75390625 55.24992187 -26.8828125 55.12109375 C-30.97195638 54.43088794 -32.62497833 53.35112398 -35.5625 50.5 C-36.69807238 48.22885524 -36.79334318 46.77706381 -36.875 44.25 C-36.91238281 43.50234375 -36.94976562 42.7546875 -36.98828125 41.984375 C-35.99494129 36.18837303 -31.08946623 31.50570603 -27.5 27 C-26.52573931 25.77237531 -25.55179036 24.54450317 -24.578125 23.31640625 C-24.08119141 22.69008301 -23.58425781 22.06375977 -23.07226562 21.41845703 C-21.5688564 19.50807707 -20.08638983 17.58318171 -18.609375 15.65234375 C-18.12992432 15.02972656 -17.65047363 14.40710937 -17.15649414 13.765625 C-16.24690089 12.58335902 -15.34209578 11.39738696 -14.44311523 10.20703125 C-6.33701951 -0.27207239 -6.33701951 -0.27207239 0 0 Z M-0.5625 20.5 C-2.41609242 22.72550101 -4.21833233 24.9680165 -6 27.25 C-6.50337891 27.88421875 -7.00675781 28.5184375 -7.52539062 29.171875 C-8.01072266 29.790625 -8.49605469 30.409375 -8.99609375 31.046875 C-9.66209595 31.89523926 -9.66209595 31.89523926 -10.34155273 32.76074219 C-11.63161678 34.5984579 -12.60760643 36.47081646 -13.5625 38.5 C-12.10239502 39.09216309 -12.10239502 39.09216309 -10.61279297 39.69628906 C-8.19423116 41.32868721 -7.63337108 42.18328757 -6.98736572 45.07019043 C-6.76896723 48.51079216 -6.73224339 51.91182064 -6.7578125 55.359375 C-6.74410614 56.61888977 -6.73039978 57.87840454 -6.71627808 59.17608643 C-6.68522649 62.51727806 -6.67986322 65.85650394 -6.68695068 69.19769287 C-6.68786397 72.60982615 -6.65500009 76.02161701 -6.625 79.43359375 C-6.57304784 86.12260281 -6.55807676 92.8108002 -6.5625 99.5 C-2.2725 99.5 2.0175 99.5 6.4375 99.5 C6.4468457 97.82454102 6.45619141 96.14908203 6.46582031 94.42285156 C6.50565996 88.2129446 6.57140302 82.0035362 6.64501953 75.79394531 C6.67548196 73.1051281 6.69614566 70.41649902 6.70849609 67.72753906 C6.72987658 63.86479803 6.77650507 60.00306552 6.828125 56.140625 C6.82935364 54.9363385 6.83058228 53.732052 6.83184814 52.49127197 C6.85156677 51.37041199 6.8712854 50.249552 6.89160156 49.09472656 C6.90048401 48.10877502 6.90936646 47.12282349 6.91851807 46.10699463 C7.57873767 42.79052278 8.85700349 41.61391755 11.4375 39.5 C12.0975 39.17 12.7575 38.84 13.4375 38.5 C12.15027826 35.76460702 10.73663102 33.42322624 8.87109375 31.046875 C8.1430957 30.11875 8.1430957 30.11875 7.40039062 29.171875 C6.89701172 28.53765625 6.39363281 27.9034375 5.875 27.25 C5.36775391 26.6003125 4.86050781 25.950625 4.33789062 25.28125 C3.06401864 23.66643491 1.75380802 22.08041476 0.4375 20.5 C0.1075 20.5 -0.2225 20.5 -0.5625 20.5 Z " fill="#000000" transform="translate(467.5625,12.5)"/>
<path d="M0 0 C7.15866866 3.94769301 11.85519599 11.75739718 16.63964844 18.19580078 C19.46068217 21.93726512 22.40390679 25.58548981 25.33325195 29.24243164 C29.7834166 34.85558582 32.60833125 38.61097242 32.35546875 45.84765625 C31.81419024 49.12506791 30.41286203 50.78820981 28 53 C24.92130158 55.0855699 22.65069057 55.06615749 19 55 C19.00666183 55.65066437 19.01332367 56.30132874 19.02018738 56.97171021 C19.08663164 63.75257418 19.13183853 70.53334543 19.16479492 77.31445312 C19.17986786 79.84411374 19.20032961 82.37374829 19.22631836 84.90332031 C19.26276616 88.54238323 19.2797417 92.18110016 19.29296875 95.8203125 C19.30845261 96.94865509 19.32393646 98.07699768 19.33988953 99.23953247 C19.34210224 109.59692014 19.34210224 109.59692014 16 114 C12.12018205 116.34848859 8.36628416 116.25751585 3.90625 116.265625 C2.90253357 116.26849518 2.90253357 116.26849518 1.87854004 116.27142334 C0.46996686 116.27277861 -0.9386191 116.26912833 -2.34716797 116.26074219 C-4.49345162 116.25003268 -6.63889839 116.26065923 -8.78515625 116.2734375 C-10.158856 116.27211579 -11.53255523 116.26955315 -12.90625 116.265625 C-14.14697266 116.26336914 -15.38769531 116.26111328 -16.66601562 116.25878906 C-20.84695407 115.93425811 -23.70269498 115.38880023 -26.61897278 112.2668457 C-28.32676466 109.46364196 -28.36306342 107.76521661 -28.34057617 104.49707031 C-28.34034958 103.39623108 -28.34012299 102.29539185 -28.33988953 101.16119385 C-28.32440567 99.97878113 -28.30892181 98.79636841 -28.29296875 97.578125 C-28.28872391 96.36300232 -28.28447906 95.14787964 -28.28010559 93.89593506 C-28.26330876 90.01373161 -28.22565338 86.13204664 -28.1875 82.25 C-28.17245452 79.61849708 -28.15876588 76.98698602 -28.14648438 74.35546875 C-28.11340185 67.90346883 -28.06319179 61.45177146 -28 55 C-29.258125 54.88527344 -30.51625 54.77054688 -31.8125 54.65234375 C-35.38221339 54.32682685 -36.01129578 53.99082218 -39 51.5625 C-41.35032457 48.13053817 -42.01924926 44.95667373 -41.796875 40.82421875 C-40.22138392 35.24049301 -36.18301797 31.06361857 -32.47167969 26.73828125 C-29.99518305 23.81315583 -27.66531912 20.77470242 -25.3125 17.75 C-24.39120446 16.58287569 -23.46934448 15.41619667 -22.546875 14.25 C-20.96780905 12.24625212 -19.42178609 10.22904812 -17.890625 8.1875 C-17.28734375 7.383125 -16.6840625 6.57875 -16.0625 5.75 C-15.55847656 5.06421875 -15.05445312 4.3784375 -14.53515625 3.671875 C-10.61030576 -0.60251689 -5.4784424 -1.12657854 0 0 Z M-5 20 C-7.29929617 22.52823786 -9.41012272 25.22138417 -11.5625 27.875 C-12.17802734 28.62136719 -12.79355469 29.36773437 -13.42773438 30.13671875 C-14.00974609 30.85214844 -14.59175781 31.56757812 -15.19140625 32.3046875 C-15.99880249 33.2944458 -15.99880249 33.2944458 -16.82250977 34.30419922 C-18.19011568 35.92971539 -18.19011568 35.92971539 -18 38 C-16.34467377 39.01866229 -14.67739862 40.01810813 -13 41 C-11.71156795 43.5768641 -11.83996567 45.48218759 -11.79467773 48.36767578 C-11.77473251 49.48868683 -11.75478729 50.60969788 -11.73423767 51.76467896 C-11.71752518 52.97928802 -11.70081268 54.19389709 -11.68359375 55.4453125 C-11.66281265 56.68546112 -11.64203156 57.92560974 -11.62062073 59.20333862 C-11.56622295 62.50111823 -11.51599905 65.7989272 -11.46777344 69.09680176 C-11.41754766 72.46172653 -11.36186723 75.8265605 -11.30664062 79.19140625 C-11.19938439 85.79420082 -11.09813214 92.39706377 -11 99 C-6.71 99 -2.42 99 2 99 C1.99887207 97.29424805 1.99774414 95.58849609 1.99658203 93.83105469 C1.9998543 88.19096944 2.03068939 82.55148445 2.0802784 76.91161728 C2.10933439 73.49248838 2.12737026 70.07404512 2.12011719 66.65478516 C2.11226102 62.72251183 2.15252281 58.79143669 2.1953125 54.859375 C2.18621857 53.63321472 2.17712463 52.40705444 2.16775513 51.14373779 C2.31025324 42.83543034 2.31025324 42.83543034 4.38909912 40.31750488 C6.05029297 39.19628906 6.05029297 39.19628906 9 38 C6.60564135 33.79005151 3.8311963 30.00840502 0.875 26.1875 C0.19244141 25.2912793 0.19244141 25.2912793 -0.50390625 24.37695312 C-1.64338313 22.89766192 -2.81860984 21.44603849 -4 20 C-4.33 20 -4.66 20 -5 20 Z " fill="#000000" transform="translate(49,13)"/>
<path d="M0 0 C0.77254623 -0.0065712 1.54509247 -0.0131424 2.34104919 -0.01991272 C4.90339246 -0.03965944 7.46567708 -0.05131135 10.02807617 -0.0612793 C10.90260626 -0.06535482 11.77713634 -0.06943035 12.67816734 -0.07362938 C17.30692688 -0.09449601 21.93565671 -0.10879513 26.56445312 -0.11816406 C31.34631134 -0.12922965 36.12770435 -0.1636294 40.90939808 -0.20333576 C44.58543261 -0.22947729 48.26135589 -0.2378537 51.9374752 -0.24144554 C53.70013254 -0.24631791 55.4627847 -0.25795043 57.22535133 -0.27648354 C59.69357819 -0.30082315 62.16059621 -0.29991985 64.62890625 -0.29296875 C65.71931717 -0.31218384 65.71931717 -0.31218384 66.83175659 -0.33178711 C70.43625727 -0.29482296 72.3885191 0.09989612 75.45089722 2.06719971 C79.58741892 6.30856851 78.6683423 11.93295942 78.67651367 17.5480957 C78.68150627 18.74801903 78.68150627 18.74801903 78.68659973 19.97218323 C78.69164753 21.65902128 78.69400872 23.34586925 78.69384766 25.03271484 C78.69603468 27.60246328 78.71421443 30.17178245 78.7331543 32.74145508 C78.73608863 34.38533383 78.73807316 36.0292146 78.73901367 37.6730957 C78.74619919 38.43577255 78.7533847 39.1984494 78.76078796 39.98423767 C78.7392501 45.05381289 78.64729651 49.97665674 74.91372681 53.81774902 C71.58649356 55.69808563 68.51094509 55.60413223 64.79003906 55.58105469 C64.01720078 55.58791794 63.24436249 55.59478119 62.44810486 55.60185242 C59.89644943 55.62013569 57.34540798 55.6162808 54.79370117 55.6105957 C53.01777445 55.61515689 51.2418495 55.62046228 49.46592712 55.6264801 C45.7444644 55.63541427 42.02321623 55.63298476 38.30175781 55.62304688 C33.53558155 55.61155868 28.77014633 55.63176456 24.00406742 55.66096401 C20.33657638 55.67932155 16.66926305 55.67903443 13.00173759 55.67332649 C11.24468382 55.67317321 9.48761805 55.67922313 7.73060799 55.69161797 C5.27208276 55.70651754 2.81492802 55.69585954 0.35644531 55.67871094 C-0.36735321 55.68837891 -1.09115173 55.69804687 -1.83688354 55.70800781 C-6.65504488 55.63773089 -9.10850562 54.59527793 -12.49145508 51.17700195 C-13.62736207 48.90518797 -13.63507221 47.60641905 -13.66845703 45.08203125 C-13.68129227 44.23742844 -13.6941275 43.39282562 -13.70735168 42.52262878 C-13.71473862 41.60806412 -13.72212555 40.69349945 -13.72973633 39.7512207 C-13.73780807 38.81147903 -13.74587982 37.87173737 -13.75419617 36.90351868 C-13.76804061 34.91209765 -13.77876115 32.92065286 -13.78662109 30.92919922 C-13.80382787 27.88699228 -13.8477099 24.8458737 -13.8918457 21.80395508 C-13.90197312 19.86971828 -13.91048907 17.93547224 -13.91723633 16.0012207 C-13.93474442 15.09272873 -13.9522525 14.18423676 -13.97029114 13.24821472 C-13.95583063 9.02676655 -13.86807543 6.78136423 -11.58984375 3.12548828 C-7.9129396 -0.2887493 -4.79087361 0.0175743 0 0 Z M3.50854492 17.17700195 C3.50854492 24.10700195 3.50854492 31.03700195 3.50854492 38.17700195 C22.64854492 38.17700195 41.78854492 38.17700195 61.50854492 38.17700195 C61.50854492 31.24700195 61.50854492 24.31700195 61.50854492 17.17700195 C42.36854492 17.17700195 23.22854492 17.17700195 3.50854492 17.17700195 Z " fill="#000000" transform="translate(346.491455078125,201.822998046875)"/>
<path d="M0 0 C1.08566757 -0.00744736 1.08566757 -0.00744736 2.19326782 -0.01504517 C4.59329167 -0.02967762 6.99324938 -0.03647106 9.39331055 -0.04199219 C11.05999249 -0.04774338 12.72667442 -0.05350112 14.39335632 -0.05926514 C17.8913097 -0.06977864 21.38924007 -0.07561881 24.88720703 -0.07910156 C29.36631788 -0.08458271 33.84512419 -0.10860099 38.3241396 -0.13707352 C41.76855858 -0.15571239 45.21290446 -0.16090619 48.65736961 -0.16243744 C50.30836843 -0.1654624 51.959366 -0.1734857 53.61031532 -0.18662262 C55.92273617 -0.20370727 58.23441637 -0.20179713 60.546875 -0.1953125 C61.86210648 -0.19895813 63.17733795 -0.20260376 64.53242493 -0.20635986 C68.1846942 0.18436544 70.07007067 0.94842923 72.9675293 3.16113281 C74.51777394 6.2616221 74.25744945 8.74007499 73.9675293 12.16113281 C72.41992188 14.85314941 72.41992188 14.85314941 69.9675293 17.16113281 C67.24258306 17.65697602 65.13826329 17.82730061 62.41674805 17.77636719 C61.28434189 17.7846907 61.28434189 17.7846907 60.12905884 17.79318237 C57.63706708 17.80497987 55.14689347 17.78070486 52.6550293 17.75488281 C50.92155032 17.75317165 49.18806876 17.75323745 47.45458984 17.75500488 C43.82290871 17.75335159 40.19184484 17.73465251 36.56030273 17.703125 C31.90618385 17.66344707 27.25287347 17.6590796 22.59861755 17.66658783 C19.01949665 17.66965802 15.44055738 17.65753533 11.86148071 17.64045715 C10.14548889 17.63342797 8.42947647 17.63030252 6.71347046 17.63114929 C4.31470571 17.62935064 1.91690798 17.60796424 -0.48168945 17.58105469 C-1.19038177 17.58398529 -1.8990741 17.58691589 -2.62924194 17.5899353 C-6.69332247 17.51962292 -9.12877429 17.09341158 -12.0324707 14.16113281 C-13.09625973 11.51274138 -13.28125105 8.99722882 -13.0324707 6.16113281 C-9.37456404 0.23280132 -6.67800839 0.0347318 0 0 Z " fill="#000000" transform="translate(220.032470703125,210.8388671875)"/>
</svg>
