<?xml version="1.0" standalone="no"?>
<!DOCTYPE svg PUBLIC "-//W3C//DTD SVG 20010904//EN"
 "http://www.w3.org/TR/2001/REC-SVG-20010904/DTD/svg10.dtd">
<svg version="1.0" xmlns="http://www.w3.org/2000/svg"
 width="512.000000pt" height="512.000000pt" viewBox="0 0 512.000000 512.000000"
 preserveAspectRatio="xMidYMid meet">

<g transform="translate(0.000000,512.000000) scale(0.100000,-0.100000)"
fill="#000000" stroke="none">
<path d="M2369 4999 l-186 -119 -212 26 c-116 14 -218 24 -225 21 -7 -3 -64
-88 -126 -189 l-113 -184 -212 -73 -211 -72 -23 -222 -23 -222 -160 -155 -160
-155 76 -211 77 -211 -76 -209 -75 -209 159 -160 160 -160 21 -215 c12 -118
25 -218 29 -222 3 -3 98 -38 211 -76 l205 -69 115 -186 c63 -102 117 -188 120
-190 3 -3 93 5 200 19 107 13 208 24 224 24 20 0 84 -35 209 -115 98 -63 183
-115 187 -115 5 0 90 52 189 115 138 88 188 115 213 115 18 0 119 -11 223 -24
105 -13 192 -22 195 -20 2 3 56 89 120 191 l115 186 204 69 c113 37 208 71
212 75 4 5 17 105 29 223 l21 215 160 160 159 160 -75 209 -76 209 77 211 76
211 -160 155 -160 155 -23 222 -23 222 -105 36 c-58 20 -154 53 -212 73 l-106
36 -113 184 c-62 101 -119 186 -126 189 -6 2 -108 -7 -224 -22 l-213 -26 -188
121 c-103 66 -189 120 -191 119 -2 0 -87 -54 -189 -120z m424 -494 c387 -67
741 -333 921 -690 94 -188 136 -367 136 -586 0 -335 -122 -641 -352 -884 -177
-187 -385 -307 -645 -372 -97 -25 -126 -27 -288 -28 -193 0 -237 6 -398 57
-315 98 -595 332 -750 626 -56 107 -111 267 -132 386 -19 114 -19 325 1 441
97 562 558 995 1134 1065 93 11 262 4 373 -15z"/>
<path d="M2435 4219 c-147 -19 -289 -72 -418 -155 -79 -51 -225 -192 -274
-265 -52 -75 -110 -200 -139 -295 -26 -82 -28 -102 -28 -264 -1 -209 15 -285
94 -445 225 -456 754 -668 1233 -495 330 120 581 424 637 773 20 120 8 321
-24 430 -116 391 -441 667 -846 717 -96 11 -136 11 -235 -1z"/>
<path d="M1185 1608 c-14 -45 -105 -330 -202 -631 -96 -302 -173 -551 -170
-554 3 -2 168 5 366 16 l361 21 287 -230 c158 -126 288 -228 289 -227 0 1 76
238 168 526 138 430 165 526 154 536 -7 6 -83 56 -168 110 l-154 99 -266 -32
c-146 -17 -266 -28 -268 -24 -2 4 -63 104 -136 222 -131 211 -147 230 -208
245 -26 7 -27 5 -53 -77z"/>
<path d="M3852 1677 c-39 -12 -36 -8 -192 -262 -68 -110 -124 -201 -124 -202
-1 -1 -110 11 -241 27 -132 16 -252 30 -268 30 -18 0 -84 -36 -192 -106 -91
-58 -165 -108 -165 -111 0 -5 331 -1046 334 -1050 1 -1 131 101 289 227 l287
230 361 -20 c199 -12 364 -19 366 -16 3 2 -74 251 -171 553 -96 302 -187 586
-201 631 -27 85 -29 87 -83 69z"/>
</g>
</svg>
