<?xml version="1.0" encoding="UTF-8"?>
<svg version="1.1" xmlns="http://www.w3.org/2000/svg" width="512" height="512">
<path d="M0 0 C4.15021967 3.10211984 8.18881926 6.34363534 12.22851562 9.58740234 C14.9795102 11.78107029 17.76907738 13.92328959 20.5625 16.0625 C21.09464111 16.47081055 21.62678223 16.87912109 22.17504883 17.29980469 C23.24687553 18.12216149 24.3188965 18.94426515 25.39111328 19.76611328 C28.09649812 21.84092587 30.79804166 23.92072853 33.5 26 C34.58331518 26.83335693 35.66664851 27.66669027 36.75 28.5 C147.25 113.5 147.25 113.5 148.87646484 114.7512207 C149.95479426 115.5806425 151.03324389 116.40990802 152.11181641 117.23901367 C154.89773945 119.38089736 157.68122833 121.52583774 160.4609375 123.67578125 C165.90596531 127.88326765 171.3550063 132.0616323 177 136 C176.29831774 140.10775357 174.48011478 141.46988776 171.13793945 143.90673828 C170.45304443 144.39126465 169.76814941 144.87579102 169.0625 145.375 C167.5977396 146.44103577 166.13424562 147.50881332 164.671875 148.578125 C163.90552734 149.13564453 163.13917969 149.69316406 162.34960938 150.26757812 C158.4460608 153.14575567 154.63093354 156.13534845 150.8125 159.125 C149.29442761 160.31009668 147.77620123 161.49499614 146.2578125 162.6796875 C145.5349707 163.24397461 144.81212891 163.80826172 144.06738281 164.38964844 C139.06518414 168.28602331 134.02999186 172.13962505 129 176 C126.83289153 177.66609253 124.66645047 179.33305199 122.5 181 C121.41667876 181.83334905 120.33334544 182.66668241 119.25 183.5 C118.445625 184.11875 118.445625 184.11875 117.625 184.75 C90 206 62.375 227.25 34.75 248.5 C34.2130249 248.91338623 33.6760498 249.32677246 33.12280273 249.75268555 C32.04807652 250.57873884 30.97208191 251.40314475 29.89477539 252.22583008 C27.04172361 254.40813557 24.2215415 256.62165329 21.43359375 258.88671875 C20.84835937 259.35529297 20.263125 259.82386719 19.66015625 260.30664062 C18.5359374 261.20780018 17.41958517 262.1188882 16.3125 263.04101562 C12.61720533 265.97938607 12.61720533 265.97938607 10.01171875 266.06640625 C7.01909079 264.48002289 4.48274977 262.38685809 1.875 260.25 C-10.71214563 250.27521399 -22.99723926 246.54271734 -39 248 C-49.68650148 249.79311793 -58.62047235 255.17573121 -66.57080078 262.43408203 C-70.47539162 265.97647955 -70.47539162 265.97647955 -73.00390625 266.08984375 C-75.87381349 264.52290809 -78.39509041 262.60070576 -80.9375 260.5625 C-82.10272905 259.64696289 -83.26809751 258.73160319 -84.43359375 257.81640625 C-85.02640137 257.34734863 -85.61920898 256.87829102 -86.22998047 256.39501953 C-88.96708944 254.23780013 -91.73393961 252.11987503 -94.5 250 C-95.58349692 249.16687938 -96.66682981 248.33354537 -97.75 247.5 C-98.28625 247.0875 -98.8225 246.675 -99.375 246.25 C-208.25 162.5 -208.25 162.5 -209.8762207 161.24902344 C-210.95543659 160.41888234 -212.03470062 159.58880382 -213.11401367 158.75878906 C-215.88574976 156.62713521 -218.65654371 154.49427399 -221.42578125 152.359375 C-221.98885986 151.92568604 -222.55193848 151.49199707 -223.13208008 151.04516602 C-224.23824506 150.19260097 -225.34357441 149.33895046 -226.44799805 148.48413086 C-230.13218056 145.63961245 -233.87739211 142.89912091 -237.70703125 140.25390625 C-238.34705078 139.63322266 -238.34705078 139.63322266 -239 139 C-239 138.01 -239 137.02 -239 136 C-236.75131545 134.09750258 -234.51938626 132.3898655 -232.125 130.6875 C-230.65114802 129.61231426 -229.17853828 128.53542407 -227.70703125 127.45703125 C-226.93439941 126.89322754 -226.16176758 126.32942383 -225.36572266 125.74853516 C-221.45953693 122.86142451 -217.63719316 119.86875373 -213.8125 116.875 C-212.29441044 115.68992531 -210.77618373 114.50502629 -209.2578125 113.3203125 C-208.5349707 112.75602539 -207.81212891 112.19173828 -207.06738281 111.61035156 C-202.06518414 107.71397669 -197.02999186 103.86037495 -192 100 C-189.83289153 98.33390747 -187.66645047 96.66694801 -185.5 95 C-184.41667876 94.16665095 -183.33334544 93.33331759 -182.25 92.5 C-181.71375 92.0875 -181.1775 91.675 -180.625 91.25 C-153 70 -125.375 48.75 -97.75 27.5 C-96.9463501 26.8817334 -96.9463501 26.8817334 -96.12646484 26.25097656 C-95.03844211 25.4141365 -93.95022459 24.57754962 -92.86181641 23.74121094 C-90.22357813 21.71349361 -87.58930332 19.68115579 -84.9609375 17.640625 C-78.41774084 12.57171822 -71.8211874 7.57489956 -65.1875 2.625 C-64.00486572 1.73216309 -64.00486572 1.73216309 -62.79833984 0.82128906 C-43.28516471 -13.65636058 -20.13814333 -14.15825798 0 0 Z " fill="#000000" transform="translate(287,46)"/>
<path d="M0 0 C1.22976563 -0.05607422 1.22976563 -0.05607422 2.484375 -0.11328125 C8.62219424 0.8316655 13.61125226 5.1971661 18.375 8.9375 C19.51292842 9.82563925 20.65095196 10.71365664 21.7890625 11.6015625 C22.36301758 12.05176758 22.93697266 12.50197266 23.52832031 12.96582031 C26.25541242 15.09892298 29.00325701 17.20480536 31.75 19.3125 C32.83344234 20.1456916 33.91677548 20.97902523 35 21.8125 C35.53625 22.225 36.0725 22.6375 36.625 23.0625 C54.5 36.8125 54.5 36.8125 56.12402344 38.06176758 C57.21058779 38.89757376 58.29717645 39.73334835 59.38378906 40.5690918 C62.04288548 42.61433636 64.7014994 44.66019991 67.359375 46.70703125 C73.48103457 51.4201 79.61160412 56.12124598 85.75 60.8125 C92.92781092 66.29812442 100.09245047 71.80046751 107.25 77.3125 C109.41644651 78.97945292 111.58322497 80.64597413 113.75 82.3125 C114.83333938 83.14582547 115.91667272 83.9791588 117 84.8125 C117.53625 85.225 118.0725 85.6375 118.625 86.0625 C162.5 119.8125 162.5 119.8125 164.12524414 121.06274414 C165.20769106 121.89535808 166.2902105 122.72787775 167.37280273 123.56030273 C170.09530322 125.65387244 172.81649085 127.74910817 175.53515625 129.84765625 C176.07760986 130.26595703 176.62006348 130.68425781 177.17895508 131.11523438 C178.25871318 131.94792781 179.33798645 132.78125036 180.41674805 133.61523438 C183.16572607 135.73415957 185.93230586 137.82276555 188.734375 139.87109375 C189.29310303 140.28157959 189.85183105 140.69206543 190.42749023 141.11499023 C191.97518997 142.24855261 193.52845197 143.37450919 195.08203125 144.5 C195.79746094 145.098125 196.51289063 145.69625 197.25 146.3125 C197.25 146.9725 197.25 147.6325 197.25 148.3125 C187.63439406 151.89485346 179.00099582 152.88871998 168.8034668 152.82043457 C167.2835795 152.8250536 165.76369668 152.83141319 164.24382305 152.83934355 C160.10238959 152.85592268 155.96132848 152.84784305 151.81989431 152.83539867 C147.33991668 152.82630333 142.86000058 152.84034003 138.3800354 152.85131836 C129.61764008 152.86906053 120.85538218 152.86528282 112.09298158 152.8536678 C104.96858233 152.84461677 97.84422147 152.84341668 90.71981812 152.84776306 C89.19609086 152.84868246 89.19609086 152.84868246 87.64158124 152.84962043 C85.57765968 152.85089939 83.51373812 152.85219625 81.44981658 152.8535108 C62.11800094 152.86490399 42.7862613 152.85182268 23.45445812 152.83030933 C6.88398872 152.81243951 -9.68636857 152.81554397 -26.25683594 152.83398438 C-45.52172152 152.85541337 -64.78654058 152.86380547 -84.05143642 152.85153532 C-86.10756364 152.85026119 -88.16369087 152.8490037 -90.21981812 152.84776306 C-91.2313466 152.84714596 -92.24287508 152.84652886 -93.28505594 152.84589306 C-100.39697295 152.84244624 -107.5088476 152.84825406 -114.62075806 152.85768127 C-123.29343805 152.86892519 -131.96597331 152.865811 -140.63863683 152.8445583 C-145.05955036 152.83408003 -149.480223 152.82987074 -153.90113449 152.84315491 C-157.95512371 152.85515187 -162.00865077 152.84839729 -166.06259859 152.8272447 C-167.52205019 152.82280934 -168.98154157 152.82497514 -170.4409672 152.83474785 C-179.90400735 152.89320983 -187.86748329 151.62173653 -196.75 148.3125 C-195.45956193 144.44118579 -193.7919408 143.62416149 -190.5 141.25 C-189.39911053 140.44617331 -188.29887193 139.64145463 -187.19921875 138.8359375 C-186.34336182 138.21283691 -186.34336182 138.21283691 -185.47021484 137.57714844 C-182.71732928 135.55331261 -180.01512414 133.46522101 -177.3125 131.375 C-176.22008549 130.53250877 -175.12763737 129.69006111 -174.03515625 128.84765625 C-173.49262207 128.42887207 -172.95008789 128.01008789 -172.39111328 127.57861328 C-169.67977871 125.48682793 -166.96471548 123.39989443 -164.25 121.3125 C-163.16664851 120.47919027 -162.08331518 119.64585693 -161 118.8125 C-158.83333333 117.14583333 -156.66666667 115.47916667 -154.5 113.8125 C-153.6961084 113.19411255 -153.6961084 113.19411255 -152.87597656 112.56323242 C-151.78941221 111.72742624 -150.70282355 110.89165165 -149.61621094 110.0559082 C-146.95711452 108.01066364 -144.2985006 105.96480009 -141.640625 103.91796875 C-134.78983176 98.64353962 -127.92616091 93.38624453 -121.05664062 88.13623047 C-114.61052906 83.20864609 -108.17847258 78.26306996 -101.75 73.3125 C-99.58355349 71.64554708 -97.41677503 69.97902587 -95.25 68.3125 C-94.16666062 67.47917453 -93.08332728 66.6458412 -92 65.8125 C-76.83333333 54.14583333 -61.66666667 42.47916667 -46.5 30.8125 C-45.9639917 30.40016113 -45.4279834 29.98782227 -44.87573242 29.56298828 C-43.79005444 28.72790154 -42.70427935 27.89294102 -41.6184082 27.05810547 C-38.94513835 25.00260638 -36.27388373 22.94461885 -33.60546875 20.8828125 C-30.32715418 18.35039805 -27.04119591 15.82814853 -23.75 13.3125 C-22.72011963 12.52480225 -22.72011963 12.52480225 -21.66943359 11.72119141 C-19.49159734 10.05927353 -17.30898601 8.40382532 -15.125 6.75 C-14.43752686 6.22486816 -13.75005371 5.69973633 -13.04174805 5.15869141 C-12.07362183 4.42851807 -12.07362183 4.42851807 -11.0859375 3.68359375 C-10.51407715 3.24974365 -9.9422168 2.81589355 -9.35302734 2.36889648 C-6.3451863 0.38672649 -3.50639093 0.10344942 0 0 Z " fill="#000000" transform="translate(255.75,323.6875)"/>
<path d="M0 0 C1.4268892 0.94094896 2.85240188 1.88398552 4.27734375 2.82788086 C5.07132568 3.35280624 5.86530762 3.87773163 6.68334961 4.41856384 C9.93071773 6.63534432 12.96390075 9.0683483 16 11.5625 C21.47809225 16.00302167 27.01490739 20.35238782 32.625 24.625 C33.34075195 25.1701123 34.05650391 25.71522461 34.79394531 26.27685547 C36.20062308 27.34746139 37.60751868 28.41778118 39.01464844 29.48779297 C41.93390565 31.71133935 44.84278576 33.94824333 47.75 36.1875 C49.30460937 37.38439453 49.30460937 37.38439453 50.890625 38.60546875 C51.91671875 39.39566406 52.9428125 40.18585938 54 41 C56.16644651 42.66695292 58.33322497 44.33347413 60.5 46 C61.58333938 46.83332547 62.66667272 47.6666588 63.75 48.5 C64.28625 48.9125 64.8225 49.325 65.375 49.75 C122.25 93.5 122.25 93.5 123.87524414 94.75024414 C124.95769106 95.58285808 126.0402105 96.41537775 127.12280273 97.24780273 C129.84530322 99.34137244 132.56649085 101.43660817 135.28515625 103.53515625 C142.47867156 109.08440896 149.71762791 114.56774406 157 120 C148.360287 128.80732648 138.42058354 135.98271141 128.55419922 143.33813477 C122.37045925 147.95308201 116.27576282 152.6640257 110.2265625 157.453125 C105.39516577 161.27737257 100.4991872 165.01772547 95.60888672 168.76611328 C92.90350188 170.84092587 90.20195834 172.92072853 87.5 175 C86.41668482 175.83335693 85.33335149 176.66669027 84.25 177.5 C83.445625 178.11875 83.445625 178.11875 82.625 178.75 C68 190 53.375 201.25 38.75 212.5 C38.21358887 212.91266113 37.67717773 213.32532227 37.12451172 213.75048828 C36.04295123 214.58238287 34.96124585 215.41408913 33.87939453 216.24560547 C31.14270782 218.34941792 28.40874723 220.45661327 25.6796875 222.5703125 C18.87204058 227.83654871 11.99376504 232.98242909 5 238 C-0.42340601 232.08355708 -0.29201369 224.02645136 -0.24050903 216.45812988 C-0.24221788 215.52841165 -0.24392673 214.59869342 -0.24568737 213.64080191 C-0.24896739 210.54235588 -0.23800309 207.44412902 -0.22705078 204.34570312 C-0.22648635 202.11795049 -0.22680386 199.89019749 -0.22793579 197.66244507 C-0.22850904 191.62588853 -0.2167591 185.58941166 -0.20278788 179.55287361 C-0.19027598 173.24012787 -0.18910965 166.92738025 -0.18673706 160.61462402 C-0.18122937 150.02269134 -0.1687413 139.43078473 -0.15087891 128.83886719 C-0.13250452 117.93196762 -0.11835565 107.02507599 -0.10986328 96.11816406 C-0.10933783 95.44520485 -0.10881239 94.77224564 -0.10827102 94.07889372 C-0.10566083 90.70265874 -0.10313344 87.32642371 -0.10064721 83.95018864 C-0.07993344 55.96677214 -0.04457504 27.98338789 0 0 Z " fill="#000000" transform="translate(32,211)"/>
<path d="M0 0 C0.06849475 28.62082787 0.1215584 57.24164604 0.15319599 85.86253979 C0.15694793 89.24446026 0.16083092 92.62638056 0.16479492 96.00830078 C0.16558185 96.68155662 0.16636878 97.35481245 0.16717956 98.04846998 C0.18021974 108.93783672 0.20386591 119.82715576 0.23145839 130.71649425 C0.25955126 141.89687875 0.27596003 153.07724699 0.28226548 164.25766718 C0.28617369 170.53463265 0.29534821 176.81149006 0.31719017 183.08842087 C0.33759266 188.99971971 0.34382612 194.91086625 0.33932304 200.82219696 C0.34014655 202.98850711 0.34608964 205.1548225 0.35761642 207.32110214 C0.37261929 210.28679346 0.36892513 213.25191539 0.36076355 216.21762085 C0.36950207 217.06784675 0.3782406 217.91807265 0.38724393 218.79406297 C0.33923751 225.28122487 -0.21775719 233.21775719 -5 238 C-12.83747491 232.15366737 -20.61887067 226.24066086 -28.35888672 220.26611328 C-31.07022129 218.17432793 -33.78528452 216.08739443 -36.5 214 C-37.58335149 213.16669027 -38.66668482 212.33335693 -39.75 211.5 C-40.554375 210.88125 -40.554375 210.88125 -41.375 210.25 C-69 189 -96.625 167.75 -124.25 146.5 C-125.05473755 145.8810083 -125.05473755 145.8810083 -125.87573242 145.24951172 C-126.95672121 144.41793189 -128.03761349 143.58622658 -129.1184082 142.75439453 C-131.86182666 140.64318208 -134.60699919 138.53432109 -137.35546875 136.4296875 C-143.96630658 131.36340193 -150.52162617 126.235345 -157 121 C-153.23090359 117.02988511 -149.22603521 113.78872054 -144.8125 110.5625 C-138.75143205 106.07579957 -132.75601614 101.51635613 -126.8125 96.875 C-126.05404785 96.28307861 -125.2955957 95.69115723 -124.51416016 95.08129883 C-123.031833 93.92440359 -121.54957183 92.76742378 -120.06738281 91.61035156 C-115.06518414 87.71397669 -110.02999186 83.86037495 -105 80 C-102.83289153 78.33390747 -100.66645047 76.66694801 -98.5 75 C-97.41667876 74.16665095 -96.33334544 73.33331759 -95.25 72.5 C-94.71375 72.0875 -94.1775 71.675 -93.625 71.25 C-70.33333333 53.33333333 -47.04166667 35.41666667 -23.75 17.5 C-23.2127832 17.08669434 -22.67556641 16.67338867 -22.12207031 16.24755859 C-21.04874501 15.42204801 -19.97518087 14.59684786 -18.90136719 13.77197266 C-16.03778156 11.5715607 -13.1796544 9.36445745 -10.328125 7.1484375 C-9.72935547 6.684375 -9.13058594 6.2203125 -8.51367188 5.7421875 C-7.35720718 4.84570324 -6.20220426 3.94732939 -5.04882812 3.046875 C-1.1124622 0 -1.1124622 0 0 0 Z " fill="#000000" transform="translate(480,211)"/>
</svg>
