<?xml version="1.0" encoding="UTF-8"?>
<svg version="1.1" xmlns="http://www.w3.org/2000/svg" width="512" height="512">
<path d="M0 0 C3.68807589 2.6217409 5.39998447 6.08667215 6.796875 10.27734375 C6.88861824 13.27509267 6.92281403 16.24919322 6.91040039 19.24682617 C6.91054642 20.16409988 6.91069244 21.0813736 6.9108429 22.02644348 C6.91014557 25.06192378 6.90236156 28.09734291 6.89453125 31.1328125 C6.89266643 33.23602769 6.89124283 35.33924332 6.89024353 37.44245911 C6.88642339 42.98104041 6.87659737 48.51959555 6.86553955 54.0581665 C6.85531464 59.70869594 6.85074359 65.3592296 6.84570312 71.00976562 C6.83497468 82.09896984 6.81790426 93.18815462 6.796875 104.27734375 C8.20214447 104.26898247 8.20214447 104.26898247 9.63580322 104.26045227 C10.8777948 104.25611679 12.11978638 104.25178131 13.39941406 104.24731445 C15.23780853 104.23895317 15.23780853 104.23895317 17.11334229 104.23042297 C22.63476446 104.30075475 28.06555517 104.82879602 33.546875 105.46484375 C34.70445312 105.59866455 35.86203125 105.73248535 37.0546875 105.87036133 C99.07789254 113.4172467 158.40066372 139.3559707 204.34375 182.0078125 C206.49929871 184.00203829 208.69173635 185.93017778 210.921875 187.83984375 C218.11997105 194.11057773 224.63402268 200.9986908 230.796875 208.27734375 C231.52261719 209.11394531 232.24835938 209.95054687 232.99609375 210.8125 C272.15485467 256.65536503 296.63268198 313.46389754 303.796875 373.27734375 C303.8904126 374.01243164 303.9839502 374.74751953 304.08032227 375.50488281 C304.90322831 382.6362414 305.05047036 389.77456609 305.09204102 396.94677734 C305.10365752 398.3410855 305.12425867 399.73534598 305.15356445 401.12939453 C305.19632546 403.17380076 305.21240494 405.21692067 305.22265625 407.26171875 C305.24453003 409.06721191 305.24453003 409.06721191 305.2668457 410.90917969 C304.56627152 415.93002196 302.03206959 418.9331614 298.671875 422.58984375 C294.4839583 425.04796877 290.61317632 425.45097217 285.796875 425.27734375 C278.32364149 423.28448148 274.81805749 418.74939765 271.06640625 412.3046875 C270.09928715 410.56786124 269.13232025 408.83094686 268.16894531 407.09204102 C244.13927322 364.36212688 204.9052649 329.8061138 161.796875 307.27734375 C161.00345703 306.85630371 160.21003906 306.43526367 159.39257812 306.00146484 C119.28644212 284.95726819 76.18574527 277.46895204 31.296875 276.08984375 C28.9010077 276.00815169 26.50517381 275.92547367 24.109375 275.84179688 C18.33887502 275.64234236 12.56809082 275.45481573 6.796875 275.27734375 C6.80575745 276.43721802 6.81463989 277.59709229 6.8237915 278.79211426 C6.90498077 289.73837912 6.96489014 300.68458265 7.00412369 311.63108063 C7.02497237 317.25841348 7.05324068 322.88550267 7.09863281 328.51269531 C7.14218702 333.94622686 7.16603256 339.37952448 7.17638397 344.81321716 C7.18375812 346.88321107 7.19815812 348.95319259 7.21979523 351.02308655 C7.24895617 353.92908098 7.25282566 356.83411648 7.25097656 359.74023438 C7.26535767 360.59044159 7.27973877 361.4406488 7.29455566 362.31661987 C7.25497578 368.08897564 6.03547857 372.45205374 2.796875 377.27734375 C-1.07420688 380.95959237 -4.20243456 382.41722581 -9.515625 382.52734375 C-10.25425781 382.553125 -10.99289063 382.57890625 -11.75390625 382.60546875 C-18.01597741 381.76653099 -22.2501047 377.74580727 -26.640625 373.52734375 C-27.26461182 372.93751709 -27.88859863 372.34769043 -28.53149414 371.73999023 C-35.85492954 364.75900822 -42.97410306 357.56216868 -50.08178711 350.36230469 C-55.91966695 344.45821825 -55.91966695 344.45821825 -62.08203125 338.8984375 C-68.74911958 333.19628895 -74.76870177 326.76440852 -80.93066406 320.52929688 C-88.35871368 312.9329306 -88.35871368 312.9329306 -96.203125 305.77734375 C-102.83896973 300.12922434 -108.81028679 293.72232984 -114.93066406 287.52929688 C-122.35871368 279.9329306 -122.35871368 279.9329306 -130.203125 272.77734375 C-136.83896973 267.12922434 -142.81028679 260.72232984 -148.93066406 254.52929688 C-156.35871368 246.9329306 -156.35871368 246.9329306 -164.203125 239.77734375 C-170.83896973 234.12922434 -176.81028679 227.72232984 -182.93066406 221.52929688 C-191.51450675 212.82073919 -191.51450675 212.82073919 -200.6171875 204.6628418 C-204.44758797 201.31654828 -206.86352685 198.50727142 -207.64453125 193.37890625 C-207.91977892 186.1869511 -206.54160545 182.02845943 -201.7769928 176.67494202 C-200.12654166 174.95411699 -198.4463239 173.26936543 -196.75 171.59375 C-195.82142181 170.66585915 -195.82142181 170.66585915 -194.87408447 169.71922302 C-193.56865372 168.41679994 -192.26080685 167.11679453 -190.95068359 165.8190918 C-188.96788928 163.8544727 -186.99313358 161.8820516 -185.01953125 159.90820312 C-179.57397132 154.4784062 -174.13997748 149.11919851 -168.27832031 144.13647461 C-163.02573944 139.4307801 -158.15857332 134.29161876 -153.203125 129.27734375 C-140.56983321 116.49408071 -140.56983321 116.49408071 -134.33984375 111.19140625 C-129.06617429 106.46727822 -124.17826605 101.31154527 -119.203125 96.27734375 C-106.56983321 83.49408071 -106.56983321 83.49408071 -100.33984375 78.19140625 C-95.06617429 73.46727822 -90.17826605 68.31154527 -85.203125 63.27734375 C-72.56983321 50.49408071 -72.56983321 50.49408071 -66.33984375 45.19140625 C-61.06617429 40.46727822 -56.17826605 35.31154527 -51.203125 30.27734375 C-38.16042644 17.07981384 -38.16042644 17.07981384 -31.84423828 11.70898438 C-29.45643068 9.62595793 -27.31171242 7.33253841 -25.140625 5.02734375 C-17.62495293 -2.53429573 -9.92927987 -5.40722412 0 0 Z " fill="#000000" transform="translate(207.203125,44.72265625)"/>
</svg>
