<?xml version="1.0" encoding="UTF-8"?>
<svg version="1.1" xmlns="http://www.w3.org/2000/svg" width="512" height="512">
<path d="M0 0 C4.00783584 3.10816572 7.68827729 6.57759543 11.33154297 10.09960938 C13.45504662 12.30419248 13.45504662 12.30419248 15.65966797 13.28710938 C38.38178194 10.027216 60.88912657 -0.45428796 80.65966797 -11.71289062 C82.43307178 -6.39267919 78.9765277 -1.57170783 76.65966797 3.28710938 C70.75794351 14.70129562 63.67492708 24.37735679 54.65966797 33.53710938 C54.18561523 34.02066895 53.7115625 34.50422852 53.22314453 35.00244141 C49.33796077 38.85201757 45.0908902 42.09021872 40.65966797 45.28710938 C56.3398732 42.43005162 71.19357683 38.42539892 86.21875 33.12158203 C89.33851697 32.05503237 92.47753748 31.14774106 95.65966797 30.28710938 C94.20329 34.57709229 91.93420705 37.88753706 89.15966797 41.41210938 C88.50188354 42.25708984 88.50188354 42.25708984 87.83081055 43.11914062 C81.9169848 50.62073323 75.42200176 57.54574406 68.65966797 64.28710938 C67.85529297 65.12628906 67.05091797 65.96546875 66.22216797 66.83007812 C65.37654297 67.70277344 64.53091797 68.57546875 63.65966797 69.47460938 C62.83466797 70.33441406 62.00966797 71.19421875 61.15966797 72.08007812 C59.03264957 74.22533011 57.00974073 75.69504347 54.42578125 77.31689453 C47.39189426 81.75265309 47.39189426 81.75265309 43.56494141 88.8581543 C43.31079712 92.32420847 43.24855157 95.62152692 43.42446899 99.08416748 C43.57566575 102.10667905 43.57740116 105.12448743 43.58961487 108.15023804 C43.59724619 109.68253782 43.61207279 111.21481888 43.63414001 112.74697876 C44.53732505 180.84095863 10.56763722 252.55199081 -34.34033203 302.28710938 C-34.89188965 302.90038086 -35.44344727 303.51365234 -36.01171875 304.14550781 C-48.08581441 317.50364693 -60.90000057 329.52134324 -75.34033203 340.28710938 C-75.9898584 340.77179688 -76.63938477 341.25648438 -77.30859375 341.75585938 C-123.79401696 376.14141683 -182.44720589 397.2238672 -240.47314453 397.49023438 C-241.50020508 397.49724869 -242.52726563 397.504263 -243.58544922 397.51148987 C-246.87878863 397.52888887 -250.17194836 397.53534135 -253.46533203 397.53710938 C-254.58937439 397.53778412 -255.71341675 397.53845886 -256.871521 397.53915405 C-272.89778527 397.52384133 -288.54418877 397.24924433 -304.34033203 394.28710938 C-305.32420898 394.11018555 -306.30808594 393.93326172 -307.32177734 393.75097656 C-321.56370521 391.14393381 -335.54701412 387.68629847 -349.34033203 383.28710938 C-350.6179541 382.88032959 -350.6179541 382.88032959 -351.92138672 382.46533203 C-374.47169183 375.12228829 -396.74381129 364.68063694 -416.34033203 351.28710938 C-416.01033203 350.62710937 -415.68033203 349.96710938 -415.34033203 349.28710938 C-414.34175171 349.39104004 -414.34175171 349.39104004 -413.32299805 349.49707031 C-360.80227105 354.66048299 -306.49391492 340.37599801 -264.34033203 308.28710938 C-264.91775146 308.1973584 -265.4951709 308.10760742 -266.09008789 308.01513672 C-288.80632117 304.40195749 -308.54096778 298.5158159 -326.34033203 283.28710938 C-327.13826172 282.62195313 -327.93619141 281.95679688 -328.75830078 281.27148438 C-342.35886034 269.54759117 -354.24261461 253.79046081 -359.34033203 236.28710938 C-359.34033203 235.29710937 -359.34033203 234.30710937 -359.34033203 233.28710938 C-358.64810547 233.35929688 -357.95587891 233.43148437 -357.24267578 233.50585938 C-343.67459183 234.79295034 -330.76591096 234.4199673 -317.34033203 232.28710938 C-319.06316406 231.65095703 -319.06316406 231.65095703 -320.82080078 231.00195312 C-350.87652702 219.73389797 -373.63279582 201.97266145 -387.55126953 172.40429688 C-394.00554169 157.99682827 -396.85204707 143.06498976 -396.34033203 127.28710938 C-391.99707066 128.66488111 -387.89025928 130.34323588 -383.71533203 132.16210938 C-374.1200865 136.17202599 -362.79755781 139.28710938 -352.34033203 139.28710938 C-353.15115234 138.64386719 -353.96197266 138.000625 -354.79736328 137.33789062 C-377.42273198 119.03128532 -392.10181778 94.49513126 -395.34033203 65.28710938 C-396.96778748 42.35614931 -393.74555479 20.04764121 -381.34033203 0.28710938 C-377.5920589 1.53653375 -376.73268028 3.04823888 -374.33251953 6.15429688 C-369.41734556 12.30571759 -364.0575945 17.86664408 -358.46533203 23.41210938 C-357.54880859 24.33636719 -356.63228516 25.260625 -355.68798828 26.21289062 C-349.54978638 32.33382614 -343.14241047 37.91805308 -336.34033203 43.28710938 C-335.74865234 43.76374023 -335.15697266 44.24037109 -334.54736328 44.73144531 C-285.47713357 84.19958165 -227.37928691 103.41023359 -165.34033203 109.28710938 C-165.48108154 108.53905029 -165.62183105 107.79099121 -165.7668457 107.02026367 C-166.96413161 100.32781008 -167.69809202 93.89647917 -167.65283203 87.09960938 C-167.64546021 85.75068604 -167.64546021 85.75068604 -167.63793945 84.37451172 C-167.13540836 55.20709176 -155.04172549 29.32755845 -134.41308594 8.94213867 C-98.64721644 -25.17926378 -39.99934412 -29.04305353 0 0 Z " fill="#000000" transform="translate(416.34033203125,66.712890625)"/>
</svg>
