<?xml version="1.0" standalone="no"?>
<!DOCTYPE svg PUBLIC "-//W3C//DTD SVG 20010904//EN"
 "http://www.w3.org/TR/2001/REC-SVG-20010904/DTD/svg10.dtd">
<svg version="1.0" xmlns="http://www.w3.org/2000/svg"
 width="512.000000pt" height="512.000000pt" viewBox="0 0 512.000000 512.000000"
 preserveAspectRatio="xMidYMid meet">

<g transform="translate(0.000000,512.000000) scale(0.100000,-0.100000)"
fill="#000000" stroke="none">
<path d="M2485 4939 c-80 -43 -1081 -622 -1118 -646 -23 -15 -46 -41 -58 -66
-18 -40 -19 -74 -19 -649 l0 -606 -507 -293 c-280 -161 -521 -301 -537 -312
-15 -11 -37 -38 -47 -61 -18 -39 -19 -79 -19 -706 0 -632 1 -667 19 -707 12
-25 34 -51 58 -66 54 -35 1069 -620 1122 -647 81 -41 78 -42 650 289 287 165
526 301 532 301 5 0 244 -136 531 -301 571 -330 569 -329 649 -289 45 23 887
507 1059 609 149 88 134 8 138 796 3 743 4 730 -61 779 -18 13 -260 155 -539
316 l-508 292 0 609 c0 654 0 649 -51 695 -13 12 -280 169 -593 349 -627 362
-620 359 -701 314z m503 -570 c229 -132 420 -244 424 -248 4 -3 -185 -118
-421 -254 l-429 -247 -413 238 c-228 131 -422 243 -432 249 -15 8 54 52 405
255 233 135 429 246 436 247 7 1 201 -107 430 -240z m-966 -807 l377 -217 1
-413 0 -413 -58 33 c-32 18 -210 121 -395 228 l-337 194 0 409 c0 385 1 409
17 402 10 -3 188 -104 395 -223z m1488 -181 l0 -408 -387 -223 c-214 -123
-391 -225 -396 -227 -4 -2 -6 181 -5 408 l3 413 385 222 c212 123 388 223 393
224 4 0 7 -184 7 -409z m-1632 -932 c229 -132 420 -244 424 -247 4 -4 -186
-119 -421 -255 l-429 -247 -414 238 c-227 131 -421 243 -431 249 -16 8 53 51
405 255 232 135 429 246 436 247 7 1 201 -107 430 -240z m2227 -6 c356 -205
424 -248 408 -256 -10 -6 -204 -118 -431 -249 l-413 -238 -362 209 c-199 115
-393 227 -431 249 l-68 40 128 73 c70 41 261 151 423 246 163 94 301 172 308
172 6 1 203 -110 438 -246z m-3193 -801 l378 -217 0 -413 0 -413 -58 33 c-32
18 -210 121 -395 228 l-337 195 0 408 c0 386 1 409 18 402 9 -3 187 -104 394
-223z m1488 -181 l0 -409 -387 -223 c-213 -123 -391 -226 -395 -227 -5 -2 -7
182 -6 409 l3 413 385 223 c212 122 388 222 393 223 4 0 7 -184 7 -409z m717
188 c202 -116 374 -217 381 -223 9 -9 12 -102 10 -419 l-3 -407 -305 176
c-168 97 -344 199 -392 226 l-88 50 0 410 c0 355 2 409 15 405 8 -4 180 -101
382 -218z m1503 -187 l0 -408 -362 -209 c-200 -115 -378 -218 -395 -228 l-33
-19 0 414 1 413 387 222 c213 123 390 223 395 223 4 0 7 -184 7 -408z"/>
</g>
</svg>
