<?xml version="1.0" encoding="UTF-8"?>
<svg version="1.1" xmlns="http://www.w3.org/2000/svg" width="512" height="512" viewBox="0 0 512 512">
<path d="M0 0 C2.12068865 -0.00270593 4.24137607 -0.00659739 6.36206055 -0.01159668 C10.77242022 -0.01744006 15.18245234 -0.00909757 19.59277344 0.00976562 C25.18653965 0.03255165 30.77953758 0.0194005 36.37327576 -0.00452423 C40.74220347 -0.01912324 45.1109553 -0.01431236 49.47988892 -0.00401306 C51.53992814 -0.00138452 53.59998446 -0.00447537 55.66000366 -0.01393127 C94.252332 -0.15229428 128.16795935 12.92763428 156.3125 39.53125 C157.12332031 40.27761719 157.93414062 41.02398437 158.76953125 41.79296875 C176.23741548 58.4355986 188.02216212 80.3729955 194.3125 103.53125 C194.51987793 104.23314453 194.72725586 104.93503906 194.94091797 105.65820312 C200.07061627 123.41953006 198.68959306 142.23933591 198.3125 160.53125 C198.85992355 160.52014694 199.40734711 160.50904388 199.97135925 160.49760437 C205.73130777 160.38594784 211.49094309 160.31114864 217.25170898 160.2565918 C219.39408887 160.23163359 221.53638525 160.19765452 223.6784668 160.15405273 C239.69949896 159.83639756 252.40412826 160.30426865 265.09375 171.3046875 C273.88757563 180.1294773 278.71013164 190.64647575 278.85461426 203.13919067 C278.84246887 204.68097488 278.84246887 204.68097488 278.83007812 206.25390625 C278.84059204 207.92693314 278.84059204 207.92693314 278.85131836 209.63375854 C278.86879289 213.28734914 278.85731243 216.94015277 278.84375 220.59375 C278.84644792 223.15242663 278.85033284 225.71110225 278.85534668 228.26977539 C278.86122751 233.6190873 278.85311141 238.96812225 278.83398438 244.31738281 C278.81222086 250.47452999 278.81927429 256.63114709 278.84129 262.78828144 C278.86172999 268.74650226 278.85943854 274.70456049 278.84776306 280.66281128 C278.84510631 283.18244502 278.84832826 285.70209242 278.85768127 288.22171021 C278.86790918 291.75102906 278.8522572 295.27934876 278.83007812 298.80859375 C278.83817505 299.83644989 278.84627197 300.86430603 278.85461426 301.92330933 C278.71481295 314.01125449 274.20576833 323.49591538 266.3125 332.53125 C258.58396715 339.87180429 248.8172532 344.59875786 238.17041016 344.72412109 C236.30795151 344.74821548 236.30795151 344.74821548 234.40786743 344.77279663 C233.05577279 344.78428316 231.70367045 344.79489185 230.3515625 344.8046875 C229.66766827 344.81001118 228.98377403 344.81533485 228.27915573 344.82081985 C224.66072463 344.84749179 221.04232735 344.86688747 217.42382812 344.88134766 C214.4362125 344.89469431 211.44927871 344.9225668 208.46191406 344.96337891 C204.84566934 345.01277154 201.2300434 345.03747562 197.6134758 345.04457474 C196.23956918 345.05127253 194.86567559 345.06645657 193.49196243 345.09046555 C181.41325558 345.28956803 181.41325558 345.28956803 177.48583984 342.12353516 C174.04762527 338.02255084 174.16507013 335.1135842 174.16773987 329.95317078 C174.16421302 329.16181899 174.16068618 328.37046721 174.15705246 327.55513507 C174.14632915 324.8879065 174.14267794 322.22071361 174.13891602 319.5534668 C174.13261271 317.6463811 174.12584716 315.73929689 174.11865234 313.83221436 C174.10395488 309.71416722 174.09224046 305.59612587 174.08270454 301.47806358 C174.06724932 294.94854964 174.0432933 288.41908415 174.01780701 281.88960266 C173.94663418 263.31746496 173.88711943 244.74529814 173.83569336 226.1730957 C173.80723745 215.92378502 173.77176353 205.67452122 173.72903961 195.42525989 C173.70248506 188.9548737 173.68444545 182.48454057 173.67300236 176.01411092 C173.66376676 171.95304328 173.64635375 167.89203885 173.62682343 163.83100891 C173.61945374 161.97088445 173.61527341 160.11074363 173.61482811 158.25060463 C173.61063078 148.53510855 173.30431541 138.92376163 172.40293884 129.24617004 C172.32353799 128.3892902 172.24413715 127.53241035 172.16233021 126.64956445 C169.78553356 103.32332088 159.53474651 82.08855957 144.3125 64.53125 C143.136875 62.984375 143.136875 62.984375 141.9375 61.40625 C137.832548 56.91035019 133.11751393 53.25252438 128.3125 49.53125 C127.136875 48.61472656 127.136875 48.61472656 125.9375 47.6796875 C101.67457131 29.72839904 73.68244922 25.38834225 44.2109375 25.36328125 C42.79912282 25.3600516 41.38730844 25.3566864 39.97549438 25.35319519 C37.03590116 25.34726262 34.09633706 25.3453491 31.15673828 25.34594727 C28.18792607 25.34602835 25.21926876 25.33910501 22.25048828 25.32543945 C-15.86512795 25.15278151 -52.03517064 27.79389539 -81.6875 54.53125 C-82.40679687 55.27890625 -83.12609375 56.0265625 -83.8671875 56.796875 C-85.6875 58.53125 -85.6875 58.53125 -87.6875 58.53125 C-87.94402344 59.11132812 -88.20054687 59.69140625 -88.46484375 60.2890625 C-89.80049643 62.73847028 -91.31674308 64.39878726 -93.25 66.40625 C-116.80960959 92.56936717 -120.84374217 125.8014378 -120.83276367 159.57348633 C-120.83576336 161.43809577 -120.83916772 163.30270459 -120.84294128 165.16731262 C-120.85170168 170.18813735 -120.85411597 175.20894499 -120.85475707 180.22977662 C-120.85547194 183.3773397 -120.85761444 186.52489854 -120.86025429 189.67246056 C-120.86948031 200.68341722 -120.87359249 211.69436186 -120.87280273 222.70532227 C-120.8722022 232.92144878 -120.88275631 243.13752246 -120.8985464 253.35363561 C-120.91167622 262.16688781 -120.91698438 270.98012284 -120.91634732 279.79338473 C-120.916094 285.03859904 -120.91885306 290.28376627 -120.92952538 295.52897072 C-120.93929896 300.4662215 -120.93922299 305.40338106 -120.93200874 310.3406353 C-120.93097441 312.13754029 -120.93325598 313.93445124 -120.9393692 315.73134613 C-120.96763306 324.62517219 -120.75880251 333.4083 -119.80903625 342.25737 C-119.73307604 342.97575163 -119.65711583 343.69413326 -119.57885379 344.43428403 C-117.59125505 361.04983091 -109.70517986 376.12298918 -98.6875 388.53125 C-98.09582031 389.21703125 -97.50414062 389.9028125 -96.89453125 390.609375 C-81.94002581 406.80743206 -59.86522813 414.50347256 -38.32592773 415.37988281 C-36.44678953 415.44164916 -34.56715985 415.48818792 -32.6875 415.53125 C-32.29820312 414.63664062 -31.90890625 413.74203125 -31.5078125 412.8203125 C-26.35376506 401.48203726 -19.81726491 392.84861977 -8.20703125 387.46875 C-1.04027385 384.80204957 5.06311417 384.19956233 12.6953125 384.16015625 C13.7865744 384.15112778 14.8778363 384.1420993 16.00216675 384.13279724 C18.30675531 384.11832891 20.61138463 384.10941653 22.91601562 384.10571289 C26.40567065 384.09385813 29.89353215 384.04467061 33.3828125 383.99414062 C48.86753595 383.88055888 60.90264547 384.7364248 73.09375 395.3046875 C82.63132013 404.87584062 86.66624001 415.18226089 86.8125 428.53125 C86.65825466 441.52731645 82.9458942 450.66901502 74.3125 460.53125 C69.64166701 464.89431492 64.1962367 468.07037153 58.3125 470.53125 C57.51360352 470.8720459 56.71470703 471.2128418 55.89160156 471.56396484 C50.90487349 472.91167403 46.13684765 472.85625079 40.9921875 472.8671875 C39.89713898 472.8738443 38.80209045 472.8805011 37.67385864 472.88735962 C35.35908685 472.89746689 33.04428603 472.90217724 30.72949219 472.90185547 C27.2202025 472.90620943 23.71219085 472.94249825 20.203125 472.98046875 C17.94531676 472.98634141 15.6875026 472.99030779 13.4296875 472.9921875 C12.39488251 473.00655853 11.36007751 473.02092957 10.29391479 473.03573608 C-2.94248079 472.95435306 -12.42313945 468.49292886 -21.84375 459.46484375 C-26.99563061 454.09189364 -30.00140444 448.4401977 -32.6875 441.53125 C-33.92242187 441.50546875 -35.15734375 441.4796875 -36.4296875 441.453125 C-67.25283372 440.53925597 -94.35290556 430.23265411 -116.17626953 408.015625 C-131.57171692 391.62141413 -145.03151154 367.55371649 -144.6875 344.53125 C-145.25189285 344.54013245 -145.81628571 344.54901489 -146.39778137 344.5581665 C-152.31968973 344.6472776 -158.24140488 344.70724612 -164.16381836 344.75097656 C-166.36832426 344.77098086 -168.57277786 344.79819322 -170.77709961 344.83300781 C-173.96220883 344.88202058 -177.14661116 344.90433127 -180.33203125 344.921875 C-181.30332474 344.94252014 -182.27461823 344.96316528 -183.27534485 344.98443604 C-195.27529201 344.98829233 -204.74115183 340.34677976 -213.6875 332.53125 C-220.4812016 325.37847326 -225.78375926 315.69733023 -225.83467102 305.72044373 C-225.84182632 304.75479996 -225.84898163 303.78915619 -225.85635376 302.79425049 C-225.86038712 301.21471588 -225.86038712 301.21471588 -225.86450195 299.60327148 C-225.87107315 298.48894241 -225.87764435 297.37461334 -225.88441467 296.22651672 C-225.90413964 292.53512504 -225.91580997 288.84377407 -225.92578125 285.15234375 C-225.92985678 283.88996447 -225.9339323 282.62758518 -225.93813133 281.32695198 C-225.95684083 275.33137484 -225.97140534 269.33582227 -225.9797433 263.34022373 C-225.98949638 256.44255672 -226.01576791 249.54521226 -226.05624419 242.64765877 C-226.0901857 236.65584139 -226.10190012 230.66417904 -226.10594749 224.67225838 C-226.11080652 222.13306558 -226.12240085 219.59387606 -226.14098549 217.05474663 C-226.16544188 213.49123675 -226.16439922 209.92855908 -226.1574707 206.36499023 C-226.17668579 204.80671005 -226.17668579 204.80671005 -226.19628906 203.21694946 C-226.11156336 191.19370317 -221.7126334 181.41814269 -213.6875 172.53125 C-203.94331286 163.73195374 -193.59996784 159.8568703 -180.55078125 160.140625 C-179.54532761 160.14628479 -178.53987396 160.15194458 -177.50395203 160.15777588 C-174.33545525 160.17992295 -171.16814703 160.23007688 -168 160.28125 C-165.83400086 160.30134306 -163.66798376 160.31958887 -161.50195312 160.3359375 C-156.23007257 160.37971597 -150.95887123 160.44640553 -145.6875 160.53125 C-145.7189209 159.00709473 -145.7189209 159.00709473 -145.75097656 157.45214844 C-146.46059706 119.68634775 -146.46059706 119.68634775 -141.6875 103.53125 C-141.48914551 102.80099609 -141.29079102 102.07074219 -141.08642578 101.31835938 C-134.89160805 78.70752106 -122.68607789 59.45649168 -106.6875 42.53125 C-105.94113281 41.72042969 -105.19476563 40.90960938 -104.42578125 40.07421875 C-76.99324997 11.28139666 -38.78923424 -0.17805035 0 0 Z M-195.6875 190.53125 C-201.48278456 197.86150182 -201.83751414 204.84608457 -201.83276367 213.89794922 C-201.83612228 214.82231781 -201.8394809 215.7466864 -201.84294128 216.69906616 C-201.8524143 219.74470374 -201.85439251 222.79028612 -201.85546875 225.8359375 C-201.85868369 227.960541 -201.86204794 230.08514428 -201.86555481 232.20974731 C-201.87153682 236.65985629 -201.87339564 241.10994588 -201.87280273 245.56005859 C-201.87270113 251.25160212 -201.88635632 256.94302087 -201.90357494 262.63453484 C-201.91471354 267.02182584 -201.91672137 271.40908684 -201.91619301 275.79639053 C-201.9173702 277.89426224 -201.9217773 279.99213479 -201.92952538 282.08999252 C-201.93936344 285.0286703 -201.9364322 287.96707927 -201.93041992 290.90576172 C-201.93603943 291.76524414 -201.94165894 292.62472656 -201.94744873 293.51025391 C-201.90692764 301.33612571 -200.9058794 308.35159018 -195.6875 314.53125 C-181.58067239 325.68408379 -163.00385951 320.53125 -145.6875 320.53125 C-145.6875 275.65125 -145.6875 230.77125 -145.6875 184.53125 C-171.15665364 182.00862145 -171.15665364 182.00862145 -195.6875 190.53125 Z M198.3125 184.53125 C198.3125 229.41125 198.3125 274.29125 198.3125 320.53125 C223.78165364 323.05387855 223.78165364 323.05387855 248.3125 314.53125 C254.10778456 307.20099818 254.46251414 300.21641543 254.45776367 291.16455078 C254.46112228 290.24018219 254.4644809 289.3158136 254.46794128 288.36343384 C254.4774143 285.31779626 254.47939251 282.27221388 254.48046875 279.2265625 C254.48368369 277.101959 254.48704794 274.97735572 254.49055481 272.85275269 C254.49653682 268.40264371 254.49839564 263.95255412 254.49780273 259.50244141 C254.49770113 253.81089788 254.51135632 248.11947913 254.52857494 242.42796516 C254.53971354 238.04067416 254.54172137 233.65341316 254.54119301 229.26610947 C254.5423702 227.16823776 254.5467773 225.07036521 254.55452538 222.97250748 C254.56436344 220.0338297 254.5614322 217.09542073 254.55541992 214.15673828 C254.56103943 213.29725586 254.56665894 212.43777344 254.57244873 211.55224609 C254.53192764 203.72637429 253.5308794 196.71090982 248.3125 190.53125 C234.20567239 179.37841621 215.62885951 184.53125 198.3125 184.53125 Z M-5.16796875 416.1484375 C-8.80950927 421.06502723 -9.45385788 425.58133423 -9.1640625 431.62890625 C-8.27127693 437.06611672 -6.01931322 440.616003 -1.78515625 444.09375 C6.10904582 449.4272608 14.79786019 448.71758618 23.99755859 448.71655273 C26.17435334 448.71873681 28.35063855 448.73692081 30.52734375 448.75585938 C44.33847334 448.87314689 44.33847334 448.87314689 56.3125 442.53125 C60.23154423 438.25028876 61.67409929 434.32606555 61.9375 428.53125 C61.66015315 422.74345918 60.35014169 418.73428906 56.3125 414.53125 C48.00935285 407.71141661 38.90489891 408.34479275 28.62744141 408.34594727 C26.45064666 408.34376319 24.27436145 408.32557919 22.09765625 408.30664062 C7.09177599 408.17302183 7.09177599 408.17302183 -5.16796875 416.1484375 Z " fill="#000000" transform="translate(229.6875,19.46875)"/>
<path d="M0 0 C1.18078125 -0.03738281 2.3615625 -0.07476562 3.578125 -0.11328125 C4.7228125 -0.12488281 5.8675 -0.13648438 7.046875 -0.1484375 C8.09198242 -0.16825684 9.13708984 -0.18807617 10.21386719 -0.20849609 C14.35645394 0.58764272 16.77257875 2.03554719 19.25 5.375 C21.21746483 9.61342754 22.56492404 14.00255512 23.93359375 18.46484375 C24.35827309 19.79926016 24.78461898 21.13314717 25.21250916 22.46653748 C26.35058556 26.03178746 27.46303553 29.60452532 28.56905365 33.17983246 C29.46669138 36.07354825 30.37685835 38.96325342 31.2870121 41.85305214 C34.09656347 50.77708111 36.85857801 59.71550582 39.6104126 68.6574707 C41.01314019 73.21282949 42.4205139 77.76675533 43.82782555 82.32069969 C44.97753142 86.04199961 46.12488033 89.76399012 47.26675415 93.48770142 C49.23162855 99.88865864 51.20797979 106.28389889 53.2746172 112.65285969 C53.92511021 114.65813541 54.57013537 116.665093 55.21372986 118.67259216 C55.99943699 121.11515902 56.79624879 123.55419568 57.60670471 125.98866272 C59.64862197 132.37407074 61.43535295 138.63553757 60.25 145.375 C58.53954886 148.48511273 56.47274959 150.76362521 53.25 152.375 C51.078125 152.6484375 51.078125 152.6484375 48.5 152.75 C47.65953125 152.79898438 46.8190625 152.84796875 45.953125 152.8984375 C42.0122794 152.13532578 39.64890583 150.49833601 37.25 147.375 C35.40827986 143.44555643 34.13623835 139.39687317 32.875 135.25 C32.34326172 133.60451172 32.34326172 133.60451172 31.80078125 131.92578125 C29.25 123.8991916 29.25 123.8991916 29.25 120.375 C10.11 120.375 -9.03 120.375 -28.75 120.375 C-29.41 123.345 -30.07 126.315 -30.75 129.375 C-31.56997012 132.4918249 -32.52163323 135.55459364 -33.5 138.625 C-33.726875 139.40101563 -33.95375 140.17703125 -34.1875 140.9765625 C-35.95178403 146.47587335 -37.84761415 149.23402414 -42.75 152.375 C-46.82171372 153.43016971 -50.95002672 153.36009604 -54.69140625 151.3125 C-57.45775059 149.07276097 -59.52474021 147.09983237 -59.99459839 143.50209045 C-60.26566438 135.46727836 -58.00524971 128.44828313 -55.5703125 120.87109375 C-55.12476726 119.44838414 -54.68048884 118.02527727 -54.23738098 116.60180664 C-53.04668714 112.78935873 -51.83861103 108.98263918 -50.62650681 105.17695236 C-49.36651266 101.21265542 -48.12062934 97.24392804 -46.87329102 93.27563477 C-45.34575705 88.41978101 -43.8159844 83.56466297 -42.27827454 78.71202087 C-39.17183052 68.90791822 -36.10700363 59.09222748 -33.08570099 49.26156425 C-31.67539577 44.67888526 -30.2539231 40.09965639 -28.8336792 35.52005005 C-28.07332263 33.06052188 -27.31729526 30.59965092 -26.56573486 28.13742065 C-25.52456057 24.731856 -24.46571919 21.33228022 -23.40234375 17.93359375 C-23.10423294 16.94311035 -22.80612213 15.95262695 -22.49897766 14.93212891 C-20.73312991 9.36134243 -18.89819663 5.53333789 -14.75 1.375 C-10.43268226 -0.78365887 -4.74204364 0.05620957 0 0 Z M-0.75 30.375 C-3.36101779 38.68397643 -5.96898433 46.99390245 -8.57302856 55.30506706 C-9.78220366 59.16397713 -10.99243894 63.02254806 -12.20507812 66.88037109 C-13.37465636 70.60133752 -14.54147444 74.32315896 -15.70635986 78.04559708 C-16.1519287 79.46771361 -16.59850196 80.88951584 -17.04608154 82.31100082 C-17.67138037 84.29750159 -18.29314266 86.28507612 -18.9140625 88.27294922 C-19.26936035 89.40546112 -19.6246582 90.53797302 -19.99072266 91.70480347 C-20.84117 94.23294811 -20.84117 94.23294811 -20.75 96.375 C-6.89 96.375 6.97 96.375 21.25 96.375 C18.89669705 87.69049906 18.89669705 87.69049906 16.34887695 79.07739258 C16.00875076 77.97708206 15.66862457 76.87677155 15.31819153 75.74311829 C14.96182114 74.59683456 14.60545074 73.45055084 14.23828125 72.26953125 C13.67864937 70.46170418 13.67864937 70.46170418 13.10771179 68.61735535 C12.12761398 65.4524179 11.14593622 62.2879766 10.16345215 59.1237793 C9.15643907 55.87916393 8.15155857 52.63388825 7.14648438 49.38867188 C5.18292801 43.05017911 3.21728297 36.71233706 1.25 30.375 C0.59 30.375 -0.07 30.375 -0.75 30.375 Z " fill="#000000" transform="translate(231.75,163.625)"/>
<path d="M0 0 C3.12578143 1.6720747 5.39281175 3.7856235 7 7 C7.10404722 8.81078814 7.14387384 10.62540073 7.15390015 12.43914795 C7.16250061 13.59437958 7.17110107 14.74961121 7.17996216 15.93984985 C7.18422211 17.21363495 7.18848206 18.48742004 7.19287109 19.79980469 C7.20077164 21.14995536 7.20904056 22.50010392 7.21765137 23.85025024 C7.24387944 28.29077129 7.25918085 32.7313018 7.2734375 37.171875 C7.27879706 38.70033016 7.28417457 40.22878526 7.28956985 41.7572403 C7.3112007 48.11558083 7.32993706 54.47391881 7.34119225 60.83228683 C7.35742872 69.94493253 7.39059632 79.05715162 7.44759309 88.16963649 C7.48630025 94.57651169 7.50582589 100.98327283 7.51111281 107.39026189 C7.51476558 111.21693937 7.52677778 115.04316194 7.55921555 118.86971283 C7.58931006 122.47153266 7.59560374 126.07262271 7.58383179 129.67454147 C7.58350615 131.62244246 7.60796345 133.57029848 7.63320923 135.51803589 C7.56509397 145.06992294 7.56509397 145.06992294 4.58853149 148.76983643 C0.52933601 152.26705866 -2.2132716 152.38968439 -7.44921875 152.359375 C-11.55868504 151.78039966 -13.21349577 150.00085071 -16 147 C-17.30261383 144.39477234 -17.13776598 142.47950533 -17.15390015 139.56085205 C-17.16250061 138.40562042 -17.17110107 137.25038879 -17.17996216 136.06015015 C-17.18422211 134.78636505 -17.18848206 133.51257996 -17.19287109 132.20019531 C-17.20077164 130.85004464 -17.20904056 129.49989608 -17.21765137 128.14974976 C-17.24387944 123.70922871 -17.25918085 119.2686982 -17.2734375 114.828125 C-17.27879706 113.29966984 -17.28417457 111.77121474 -17.28956985 110.2427597 C-17.3112007 103.88441917 -17.32993706 97.52608119 -17.34119225 91.16771317 C-17.35742872 82.05506747 -17.39059632 72.94284838 -17.44759309 63.83036351 C-17.48630025 57.42348831 -17.50582589 51.01672717 -17.51111281 44.60973811 C-17.51476558 40.78306063 -17.52677778 36.95683806 -17.55921555 33.13028717 C-17.58931006 29.52846734 -17.59560374 25.92737729 -17.58383179 22.32545853 C-17.58350615 20.37755754 -17.60796345 18.42970152 -17.63320923 16.48196411 C-17.56509397 6.93007706 -17.56509397 6.93007706 -14.58853149 3.23016357 C-10.0446822 -0.68461483 -5.85168585 -0.82443353 0 0 Z " fill="#000000" transform="translate(333,164)"/>
</svg>
