<?xml version="1.0" encoding="UTF-8"?>
<svg version="1.1" xmlns="http://www.w3.org/2000/svg" width="512" height="512" viewBox="0 0 512 512">
<path d="M0 0 C2.65625 1.66743469 2.65625 1.66743469 5 4 C5.55175781 6.6603241 5.55175781 6.6603241 5.453125 9.72729492 C5.43080811 10.87916794 5.40849121 12.03104095 5.38549805 13.21781921 C5.31842651 15.08033073 5.31842651 15.08033073 5.25 16.98046875 C5.22599083 18.94051702 5.20206056 20.90056981 5.18266296 22.86066914 C5.12900379 27.68640023 5.02654803 32.50988888 4.86669922 37.33325195 C3.40929371 53.07181828 3.40929371 53.07181828 8.78515625 66.90478516 C11.90739002 69.48116342 15.05300203 71.01471193 19 72 C25.68769159 71.28518768 31.32246593 67.68578486 36 63 C37.61745924 58.45160475 37.4304317 54.23582417 37.21484375 49.453125 C37.20469707 47.48425411 37.19457411 45.51538276 37.18586826 43.54650497 C37.15904297 40.80761675 37.07758848 38.07140291 36.99609375 35.3336792 C36.86091274 30.52644518 36.79480388 25.71824348 36.75526428 20.90936279 C36.72873315 18.35360063 36.67417264 15.79794462 36.58885193 13.24346924 C36.56976273 12.08836853 36.55067352 10.93326782 36.53100586 9.74316406 C36.50147324 8.72804749 36.47194061 7.71293091 36.44151306 6.66705322 C37 4 37 4 39.34474182 1.66644287 C42.60221756 -0.37795238 44.21153035 -0.50512929 48 0 C56.38768949 3.02506834 63.39956926 8.11433671 70 14 C70.71027344 14.62777344 71.42054688 15.25554688 72.15234375 15.90234375 C80.41985011 23.66205701 85.94535879 33.48466676 90 44 C90.48146484 45.24523437 90.48146484 45.24523437 90.97265625 46.515625 C96.68635888 64.69317199 93.92545947 85.9531256 85.4375 102.6875 C81.39502365 110.18053946 75.88577887 115.9345027 70 122 C62.69329645 130.06206853 62.07156406 137.83588828 61.45703125 148.34375 C61.39014099 149.45121582 61.39014099 149.45121582 61.32189941 150.58105469 C61.21302929 152.38727583 61.10629655 154.19362558 61 156 C67.44185295 156.00910371 73.88224784 155.97170023 80.32373047 155.90234375 C82.51377231 155.88420407 84.70392845 155.87661154 86.89404297 155.87988281 C90.04744545 155.88274564 93.19848744 155.84736994 96.3515625 155.8046875 C97.32678864 155.81378143 98.30201477 155.82287537 99.30679321 155.83224487 C104.1834239 155.72857986 107.11423296 155.47766919 110.66552734 151.94970703 C111.43590332 150.97630371 112.2062793 150.00290039 113 149 C111.89140625 148.97421875 110.7828125 148.9484375 109.640625 148.921875 C108.17704453 148.86558344 106.71350438 148.80823633 105.25 148.75 C104.52039063 148.73582031 103.79078125 148.72164062 103.0390625 148.70703125 C99.83417152 148.56135439 97.48682706 148.32505333 94.79003906 146.52441406 C92.14017738 142.78742963 92.42566503 139.47912166 92.46875 135 C92.4649231 134.12730469 92.46109619 133.25460938 92.45715332 132.35546875 C92.4544351 130.51300908 92.46179006 128.67051076 92.47851562 126.828125 C92.49992752 124.00954066 92.47871199 121.19350515 92.453125 118.375 C92.45576829 116.58332771 92.46089331 114.79165701 92.46875 113 C92.46065308 112.15824219 92.45255615 111.31648438 92.44421387 110.44921875 C92.50493668 106.65607986 92.55300916 104.63037169 94.79003906 101.47558594 C98.0823675 99.27730566 101.41421328 99.32454709 105.25 99.25 C105.99507813 99.22035156 106.74015625 99.19070312 107.5078125 99.16015625 C109.33796672 99.0897657 111.16898769 99.04258168 113 99 C112.28972656 98.35933594 111.57945312 97.71867187 110.84765625 97.05859375 C109.92855469 96.19363281 109.00945312 95.32867187 108.0625 94.4375 C107.14597656 93.59058594 106.22945313 92.74367188 105.28515625 91.87109375 C102.5065992 88.38008618 101.91641674 86.44957917 102 82 C104.48154135 77.76795538 107.38933817 74.35438752 110.84375 70.890625 C111.76027344 69.97152344 112.67679687 69.05242187 113.62109375 68.10546875 C114.09401855 67.6367334 114.56694336 67.16799805 115.05419922 66.68505859 C116.50337328 65.24665178 117.94149173 63.79780426 119.37890625 62.34765625 C120.29542969 61.43371094 121.21195312 60.51976562 122.15625 59.578125 C123.40631836 58.33144043 123.40631836 58.33144043 124.68164062 57.05957031 C128.06329565 54.05539573 129.85482678 52.98032348 134.41015625 53.05859375 C138.74453111 54.195247 140.42037056 55.79738732 143.4375 59.0625 C144.30246094 59.98160156 145.16742188 60.90070313 146.05859375 61.84765625 C146.69925781 62.55792969 147.33992188 63.26820312 148 64 C148.02578125 62.89140625 148.0515625 61.7828125 148.078125 60.640625 C148.13441656 59.17704453 148.19176367 57.71350438 148.25 56.25 C148.26417969 55.52039063 148.27835937 54.79078125 148.29296875 54.0390625 C148.43864561 50.83417152 148.67494667 48.48682706 150.47558594 45.79003906 C154.21257037 43.14017738 157.52087834 43.42566503 162 43.46875 C162.87269531 43.4649231 163.74539063 43.46109619 164.64453125 43.45715332 C166.48699092 43.4544351 168.32948924 43.46179006 170.171875 43.47851562 C172.99045934 43.49992752 175.80649485 43.47871199 178.625 43.453125 C180.41667229 43.45576829 182.20834299 43.46089331 184 43.46875 C184.84175781 43.46065308 185.68351562 43.45255615 186.55078125 43.44421387 C190.34392014 43.50493668 192.36962831 43.55300916 195.52441406 45.79003906 C197.72269434 49.0823675 197.67545291 52.41421328 197.75 56.25 C197.79447266 57.36761719 197.79447266 57.36761719 197.83984375 58.5078125 C197.9102343 60.33796672 197.95741832 62.16898769 198 64 C198.64066406 63.28972656 199.28132813 62.57945313 199.94140625 61.84765625 C200.80636719 60.92855469 201.67132813 60.00945312 202.5625 59.0625 C203.83287109 57.68771484 203.83287109 57.68771484 205.12890625 56.28515625 C208.61991382 53.5065992 210.55042083 52.91641674 215 53 C219.23204462 55.48154135 222.64561248 58.38933817 226.109375 61.84375 C227.02847656 62.76027344 227.94757813 63.67679688 228.89453125 64.62109375 C229.59763428 65.33048096 229.59763428 65.33048096 230.31494141 66.05419922 C231.75334822 67.50337328 233.20219574 68.94149173 234.65234375 70.37890625 C236.02326172 71.75369141 236.02326172 71.75369141 237.421875 73.15625 C238.66855957 74.40631836 238.66855957 74.40631836 239.94042969 75.68164062 C242.94460427 79.06329565 244.01967652 80.85482678 243.94140625 85.41015625 C242.804753 89.74453111 241.20261268 91.42037056 237.9375 94.4375 C237.01839844 95.30246094 236.09929687 96.16742188 235.15234375 97.05859375 C234.44207031 97.69925781 233.73179687 98.33992188 233 99 C234.10859375 99.02578125 235.2171875 99.0515625 236.359375 99.078125 C237.82295547 99.13441656 239.28649562 99.19176367 240.75 99.25 C241.47960937 99.26417969 242.20921875 99.27835937 242.9609375 99.29296875 C246.16582848 99.43864561 248.51317294 99.67494667 251.20996094 101.47558594 C253.85982262 105.21257037 253.57433497 108.52087834 253.53125 113 C253.5350769 113.87269531 253.53890381 114.74539062 253.54284668 115.64453125 C253.5455649 117.48699092 253.53820994 119.32948924 253.52148438 121.171875 C253.50007248 123.99045934 253.52128801 126.80649485 253.546875 129.625 C253.54423171 131.41667229 253.53910669 133.20834299 253.53125 135 C253.53934692 135.84175781 253.54744385 136.68351563 253.55578613 137.55078125 C253.49506332 141.34392014 253.44699084 143.36962831 251.20996094 146.52441406 C247.9176325 148.72269434 244.58578672 148.67545291 240.75 148.75 C240.00492187 148.77964844 239.25984375 148.80929688 238.4921875 148.83984375 C236.66203328 148.9102343 234.83101231 148.95741832 233 149 C236.45752967 153.45442613 236.45752967 153.45442613 241.484375 155.48046875 C243.19842992 155.57428537 244.916267 155.61760498 246.6328125 155.6015625 C249.90433503 156.15221481 250.82822064 157.51392049 253 160 C254.20277254 162.02620747 255.32623425 164.10044175 256.39160156 166.20214844 C256.70429993 166.81411072 257.01699829 167.426073 257.33917236 168.05657959 C258.3647996 170.07000664 259.37837884 172.08919112 260.390625 174.109375 C261.1021229 175.51950645 261.81385758 176.92951845 262.52581787 178.3394165 C264.01413208 181.29213307 265.4958255 184.24806671 266.97363281 187.20605469 C268.86274773 190.98469087 270.77363086 194.75184116 272.69040298 198.5165062 C274.16670128 201.42449968 275.62829314 204.33970224 277.08592987 207.25708771 C277.78406226 208.64865083 278.48735106 210.03764004 279.19599152 211.42388153 C280.18812733 213.36869694 281.15921965 215.32274517 282.12597656 217.28027344 C282.68238831 218.38739685 283.23880005 219.49452026 283.81207275 220.63519287 C285.31351493 224.88803188 285.50398209 227.50712028 285 232 C283.68 233.32 282.36 234.64 281 236 C271.76 236 262.52 236 253 236 C253 264.71 253 293.42 253 323 C255.64 323.33 258.28 323.66 261 324 C269.74577596 326.84746194 276.0891657 332.51546192 280.3828125 340.60546875 C284.37140676 350.27013945 284.29600394 359.81787894 280.31640625 369.46875 C274.1779599 381.27205337 261.60379323 387.42758394 250.375 393.5625 C241.88076024 398.26107918 233.43618799 403.02710702 225.0625 407.9375 C216.76625069 412.79945629 208.456567 417.63626856 200.125 422.4375 C199.04484619 423.06003662 197.96469238 423.68257324 196.85180664 424.32397461 C194.66203666 425.58576826 192.47217645 426.84740534 190.28222656 428.10888672 C185.93449891 430.61390743 181.58821172 433.12141991 177.2421875 435.62939453 C175.08884498 436.87178236 172.93520131 438.1136484 170.78125 439.35498047 C165.77168982 442.24260376 160.76459543 445.13421845 155.76715088 448.04275513 C154.01729819 449.06088711 152.26659057 450.07753333 150.515625 451.09375 C148.33423929 452.36036106 146.15441975 453.6296753 143.9765625 454.90234375 C129.34771487 463.38556725 118.37232111 468.30267943 101.35473633 468.29052734 C99.98550046 468.29652103 98.61626795 468.30332849 97.24703979 468.31088257 C93.54632717 468.3284674 89.8457072 468.33323484 86.14495683 468.33451414 C83.8264682 468.33594092 81.50800273 468.34022052 79.18951988 468.34550858 C71.08263036 468.36398617 62.97580637 468.37218231 54.86889648 468.37060547 C47.34237485 468.36940568 39.81614071 468.39048177 32.28969175 468.4220928 C25.80359242 468.44835201 19.31758642 468.4589687 12.83143443 468.45769465 C8.96838451 468.45718771 5.10559018 468.46272065 1.24259377 468.48405075 C-2.39621082 468.50359601 -6.03452031 468.50344832 -9.67334366 468.48901749 C-11.6233743 468.48597165 -13.57340587 468.50249237 -15.52336121 468.51989746 C-26.41965326 468.44325761 -36.19155868 465.85025805 -45.8125 460.75 C-46.80894531 460.22921875 -47.80539063 459.7084375 -48.83203125 459.171875 C-49.54746094 458.78515625 -50.26289063 458.3984375 -51 458 C-50.95359375 458.96421875 -50.9071875 459.9284375 -50.859375 460.921875 C-50.82328125 462.18515625 -50.7871875 463.4484375 -50.75 464.75 C-50.70359375 466.00296875 -50.6571875 467.2559375 -50.609375 468.546875 C-51 472 -51 472 -52.58691406 474.18347168 C-55.8448005 476.63595085 -57.94311987 476.50731642 -62 476.51757812 C-62.69641602 476.5245874 -63.39283203 476.53159668 -64.11035156 476.53881836 C-66.40730932 476.55639196 -68.70303021 476.54477919 -71 476.53125 C-72.59896073 476.53394513 -74.19791987 476.53782773 -75.796875 476.54284668 C-79.14599226 476.54874082 -82.49468243 476.54018192 -85.84375 476.52148438 C-90.13478591 476.49869435 -94.42482111 476.51181796 -98.71582031 476.53577423 C-102.01700366 476.5502348 -105.31795011 476.54562515 -108.61914062 476.53526306 C-110.20117308 476.53259646 -111.78322711 476.53586322 -113.36523438 476.54518127 C-115.57740163 476.55535179 -117.787953 476.5398419 -120 476.51757812 C-121.258125 476.51439575 -122.51625 476.51121338 -123.8125 476.50793457 C-127 476 -127 476 -129.421875 474.35827637 C-131.46889714 471.299302 -131.40859243 469.39762579 -131.25 465.75 C-131.21390625 464.67234375 -131.1778125 463.5946875 -131.140625 462.484375 C-131.09421875 461.66453125 -131.0478125 460.8446875 -131 460 C-131.74280212 460.00888245 -132.48560425 460.01776489 -133.25091553 460.0269165 C-140.25449905 460.10709744 -147.25792335 460.16798186 -154.26183701 460.20724869 C-157.86258286 460.22811513 -161.46294916 460.25641421 -165.06347656 460.30175781 C-168.53887913 460.34525125 -172.01391688 460.36914421 -175.48957062 460.37950897 C-177.45945784 460.39048615 -179.42919847 460.421707 -181.39886475 460.45318604 C-183.20027924 460.45363922 -183.20027924 460.45363922 -185.03808594 460.45410156 C-186.6236026 460.46742523 -186.6236026 460.46742523 -188.2411499 460.48101807 C-191.76635679 459.86638221 -192.76283009 458.7470094 -195 456 C-195.50336456 453.64489746 -195.50336456 453.64489746 -195.50793457 450.99023438 C-195.52485352 449.47610962 -195.52485352 449.47610962 -195.54211426 447.93139648 C-195.52996887 446.27926147 -195.52996887 446.27926147 -195.51757812 444.59375 C-195.5245874 443.4291626 -195.53159668 442.2645752 -195.53881836 441.06469727 C-195.55644432 437.20955667 -195.54475841 433.35514826 -195.53125 429.5 C-195.53394357 426.82486047 -195.53781853 424.14974331 -195.54284668 421.47460938 C-195.55012197 415.8658045 -195.54053871 410.25721037 -195.52148438 404.6484375 C-195.49971557 398.16582093 -195.50676705 391.68370758 -195.52879 385.20110321 C-195.54694759 379.63323411 -195.54950066 374.06551641 -195.53903532 368.49762726 C-195.53280222 365.1730433 -195.53353198 361.84874748 -195.54518127 358.52416992 C-195.55531748 354.81784843 -195.53988485 351.11249893 -195.51757812 347.40625 C-195.52567505 346.30482666 -195.53377197 345.20340332 -195.54211426 344.06860352 C-195.53083496 343.05918701 -195.51955566 342.04977051 -195.50793457 341.00976562 C-195.50642647 340.13372681 -195.50491837 339.25768799 -195.50336456 338.35510254 C-194.82967113 335.20307868 -193.48194675 333.99066754 -191 332 C-188.2411499 331.51898193 -188.2411499 331.51898193 -185.03808594 331.54589844 C-183.83714294 331.54620056 -182.63619995 331.54650269 -181.39886475 331.54681396 C-180.10708313 331.56745911 -178.81530151 331.58810425 -177.484375 331.609375 C-176.14488571 331.61683929 -174.80538548 331.62253134 -173.46588135 331.62652588 C-169.94748564 331.64176787 -166.42975485 331.68103582 -162.91162109 331.7253418 C-159.31877639 331.76632636 -155.7258238 331.7845436 -152.1328125 331.8046875 C-145.08827034 331.84753255 -138.04417868 331.91576554 -131 332 C-131.04640625 331.18015625 -131.0928125 330.3603125 -131.140625 329.515625 C-131.17671875 328.43796875 -131.2128125 327.3603125 -131.25 326.25 C-131.29640625 325.18265625 -131.3428125 324.1153125 -131.390625 323.015625 C-131 320 -131 320 -129.421875 317.64172363 C-126.14919167 315.42326002 -123.94139813 315.49239147 -120 315.48242188 C-119.30358398 315.4754126 -118.60716797 315.46840332 -117.88964844 315.46118164 C-115.59269068 315.44360804 -113.29696979 315.45522081 -111 315.46875 C-109.40103927 315.46605487 -107.80208013 315.46217227 -106.203125 315.45715332 C-102.85400774 315.45125918 -99.50531757 315.45981808 -96.15625 315.47851562 C-91.86521409 315.50130565 -87.57517889 315.48818204 -83.28417969 315.46422577 C-79.98299634 315.4497652 -76.68204989 315.45437485 -73.38085938 315.46473694 C-71.79882692 315.46740354 -70.21677289 315.46413678 -68.63476562 315.45481873 C-66.42259837 315.44464821 -64.212047 315.4601581 -62 315.48242188 C-60.1128125 315.48719543 -60.1128125 315.48719543 -58.1875 315.49206543 C-54.44586617 316.08830235 -53.26341734 317.02138968 -51 320 C-50.54589844 322.01464844 -50.54589844 322.01464844 -50.609375 324.109375 C-50.62226563 324.86347656 -50.63515625 325.61757813 -50.6484375 326.39453125 C-50.69871094 327.56048828 -50.69871094 327.56048828 -50.75 328.75 C-50.76804688 329.54277344 -50.78609375 330.33554687 -50.8046875 331.15234375 C-50.85166918 333.10208348 -50.92340956 335.05119878 -51 337 C-46.05 335.68 -41.1 334.36 -36 333 C-35.67 300.99 -35.34 268.98 -35 236 C-44.24 236 -53.48 236 -63 236 C-67 232 -67 232 -67.43635559 228.18344116 C-67.21094277 223.99779851 -65.90512989 220.8199468 -64.01831055 217.06494141 C-63.7012616 216.42325012 -63.38421265 215.78155884 -63.05755615 215.12042236 C-62.01603405 213.02267898 -60.95209521 210.93727828 -59.88671875 208.8515625 C-59.15286906 207.38863688 -58.420206 205.92511546 -57.68867493 204.46102905 C-56.15752768 201.40497035 -54.61583135 198.35456404 -53.06567383 195.30810547 C-51.07863169 191.40219501 -49.11299356 187.48599478 -47.15439129 183.56575966 C-45.64495686 180.54797764 -44.1272245 177.53443475 -42.60663795 174.52225876 C-41.87869939 173.07910797 -41.1526932 171.6349808 -40.42865562 170.18986893 C-39.41704304 168.17530776 -38.39507543 166.16636338 -37.36987305 164.15869141 C-36.50050362 162.44282333 -36.50050362 162.44282333 -35.61357117 160.69229126 C-34 158 -34 158 -31 156 C-28.08203125 155.8046875 -28.08203125 155.8046875 -24.8125 155.875 C-23.72582031 155.89304688 -22.63914063 155.91109375 -21.51953125 155.9296875 C-20.68808594 155.95289063 -19.85664063 155.97609375 -19 156 C-19.22208447 152.33109225 -19.48274323 148.66587204 -19.75 145 C-19.811875 143.97003906 -19.87375 142.94007813 -19.9375 141.87890625 C-20.68007441 132.16355774 -23.0295636 126.31116068 -30.3125 119.6875 C-43.29522104 107.34851454 -50.7617403 90.00156157 -52 72.17578125 C-52 51.1232703 -45.79033681 31.91649336 -30.8203125 16.72265625 C-23.01343219 9.18609728 -11.72175338 -1.61251634 0 0 Z M-21 31 C-32.79000802 44.72394215 -35.2346866 60.58333148 -34 78 C-31.62960951 91.96531263 -23.4462225 101.94893462 -14 112 C-7.36651164 119.20447217 -4.01887727 126.30700525 -3.68359375 136.078125 C-3.64169922 137.23828125 -3.59980469 138.3984375 -3.55664062 139.59375 C-3.51732422 140.8003125 -3.47800781 142.006875 -3.4375 143.25 C-3.39431641 144.47203125 -3.35113281 145.6940625 -3.30664062 146.953125 C-3.20062717 149.96861881 -3.0998156 152.98429468 -3 156 C2.28 156 7.56 156 13 156 C13.03738281 154.01355469 13.07476562 152.02710938 13.11328125 149.98046875 C13.16195816 148.05425387 13.21073808 146.12804005 13.26245117 144.2019043 C13.31201319 142.2070937 13.34651133 140.21192743 13.38085938 138.21679688 C13.41630859 136.96318359 13.45175781 135.70957031 13.48828125 134.41796875 C13.51446533 133.26063232 13.54064941 132.1032959 13.56762695 130.91088867 C14 128 14 128 15.41088867 126.1237793 C17.39655932 124.71956329 18.58256276 124.59752912 21 124.625 C22.0209375 124.61339844 22.0209375 124.61339844 23.0625 124.6015625 C25.66764313 125.13729758 26.39964432 125.87182325 28 128 C28.43237305 130.91088867 28.43237305 130.91088867 28.51171875 134.41796875 C28.54716797 135.67158203 28.58261719 136.92519531 28.61914062 138.21679688 C28.65297852 140.18229492 28.65297852 140.18229492 28.6875 142.1875 C28.72067666 143.52282013 28.75516666 144.85810832 28.79101562 146.19335938 C28.87361509 149.46193825 28.93848004 152.73095644 29 156 C34.28 156 39.56 156 45 156 C45.02578125 154.23914063 45.0515625 152.47828125 45.078125 150.6640625 C45.13443807 148.31768464 45.19178466 145.97133143 45.25 143.625 C45.26417969 142.46871094 45.27835937 141.31242187 45.29296875 140.12109375 C45.6404053 127.82184004 49.16832728 118.53376585 58.1875 110 C70.02872406 98.35417568 76.28428233 84.66147432 76.5 68 C76.33604843 51.8996554 70.60905458 39.83351549 60.02734375 27.91015625 C57.84592855 25.85483441 55.58316303 24.50270414 53 23 C52.99635437 23.60499329 52.99270874 24.20998657 52.98895264 24.83331299 C52.94715638 31.12771072 52.87783118 37.42137731 52.79248047 43.71533203 C52.76424712 46.06454152 52.74304442 48.41384641 52.72900391 50.76318359 C52.70760776 54.13949518 52.66097263 57.51465667 52.609375 60.890625 C52.60814636 61.94179504 52.60691772 62.99296509 52.60565186 64.07598877 C52.45959587 71.3401479 52.45959587 71.3401479 50.28320312 74.46484375 C49.52974609 74.97144531 48.77628906 75.47804687 48 76 C47.19530273 76.60424805 46.39060547 77.20849609 45.56152344 77.83105469 C42.63687339 79.82345271 39.69845647 81.79299439 36.75 83.75 C35.73808594 84.44738281 34.72617188 85.14476562 33.68359375 85.86328125 C24.0004124 92.28105773 24.0004124 92.28105773 19.21142578 91.77734375 C14.1454499 89.99659003 9.74295593 86.86580255 5.34301758 83.84667969 C3.55357467 82.618876 1.748798 81.41698516 -0.06054688 80.21875 C-8.82118342 74.35763317 -8.82118342 74.35763317 -10 72 C-10.11840113 70.42793357 -10.17703033 68.85116731 -10.20532227 67.27490234 C-10.22526749 66.29403656 -10.24521271 65.31317078 -10.26576233 64.30258179 C-10.28247482 63.24108917 -10.29918732 62.17959656 -10.31640625 61.0859375 C-10.33718735 60.00116119 -10.35796844 58.91638489 -10.37937927 57.79873657 C-10.44490634 54.32422379 -10.50377447 50.84963376 -10.5625 47.375 C-10.60568221 45.02342942 -10.6492964 42.67186674 -10.69335938 40.3203125 C-10.80059093 34.5469573 -10.90235144 28.7735248 -11 23 C-14.3622182 23 -18.76379234 28.78188463 -21 31 Z M165 60 C164.96261719 61.62550781 164.92523438 63.25101563 164.88671875 64.92578125 C164.82106894 67.05471096 164.75462126 69.18361617 164.6875 71.3125 C164.66494141 72.38435547 164.64238281 73.45621094 164.61914062 74.56054688 C164.58369141 75.58857422 164.54824219 76.61660156 164.51171875 77.67578125 C164.48553467 78.62364502 164.45935059 79.57150879 164.43237305 80.5480957 C163.93000062 83.39695303 163.25856774 84.25697117 161 86 C156.92666453 88.14981594 153.55855385 88.69537262 149 88 C145.99609439 85.99739626 143.53184762 83.56151771 141 81 C140.319375 80.33226563 139.63875 79.66453125 138.9375 78.9765625 C137.27439538 77.33357608 135.62994467 75.67578686 134 74 C132.91160226 74.88967344 131.82955392 75.78711574 130.75 76.6875 C130.14671875 77.18636719 129.5434375 77.68523437 128.921875 78.19921875 C126.6890576 80.2913505 124.86460342 82.57849069 123 85 C124.39025391 86.37285156 124.39025391 86.37285156 125.80859375 87.7734375 C127.01836039 88.9738261 128.22798865 90.17435417 129.4375 91.375 C130.04916016 91.97828125 130.66082031 92.5815625 131.29101562 93.203125 C132.1659668 94.07324219 132.1659668 94.07324219 133.05859375 94.9609375 C133.59798584 95.49509277 134.13737793 96.02924805 134.69311523 96.57958984 C136.8095452 98.8798681 137.0041997 100.05459613 137.25 103.25 C136.92087751 108.1868374 135.50139672 111.49860328 132 115 C129.66162109 115.31884766 129.66162109 115.31884766 126.7734375 115.4140625 C125.7421875 115.45273438 124.7109375 115.49140625 123.6484375 115.53125 C122.56820313 115.5621875 121.48796875 115.593125 120.375 115.625 C118.74304688 115.68300781 118.74304688 115.68300781 117.078125 115.7421875 C114.38570255 115.83665846 111.69287416 115.91942581 109 116 C109 121.28 109 126.56 109 132 C110.62550781 132.03738281 112.25101562 132.07476562 113.92578125 132.11328125 C116.05471096 132.17893106 118.18361617 132.24537874 120.3125 132.3125 C121.38435547 132.33505859 122.45621094 132.35761719 123.56054688 132.38085938 C125.10258789 132.4340332 125.10258789 132.4340332 126.67578125 132.48828125 C128.0975769 132.52755737 128.0975769 132.52755737 129.5480957 132.56762695 C132.39695303 133.06999938 133.25697117 133.74143226 135 136 C137.14806551 140.07001887 137.61818275 143.44090218 137 148 C135.02 150.64 133.04 153.28 131 156 C142.22 156 153.44 156 165 156 C162.68635707 154.45757138 160.61395515 153.2968427 158.125 152.125 C150.39992458 148.25540098 146.10138319 143.19854379 142.87890625 135.2265625 C140.50663198 126.51768008 140.87182637 116.20120356 144.81640625 108.0390625 C148.92801558 100.95569593 155.07657211 96.09656509 162.83203125 93.3515625 C173.44249171 91.63094729 183.54106247 92.35263537 192.76171875 98.09765625 C198.65407085 102.47610429 202.10189179 109.05426776 204 116 C204.96819539 126.76273013 204.41226385 136.34667373 197.75 145.3125 C192.85973047 150.09162704 187.62096237 153.17923535 181 155 C181 155.33 181 155.66 181 156 C192.22 156 203.44 156 215 156 C213.02 153.36 211.04 150.72 209 148 C208.18599311 142.75417784 209.27860961 139.50076102 212 135 C214.56136221 132.43863779 215.66561331 132.70333143 219.2265625 132.5859375 C220.2578125 132.54726562 221.2890625 132.50859375 222.3515625 132.46875 C223.43179688 132.4378125 224.51203125 132.406875 225.625 132.375 C226.71296875 132.33632812 227.8009375 132.29765625 228.921875 132.2578125 C231.61429745 132.16334154 234.30712584 132.08057419 237 132 C237 126.72 237 121.44 237 116 C235.37449219 115.96261719 233.74898438 115.92523438 232.07421875 115.88671875 C229.94528904 115.82106894 227.81638383 115.75462126 225.6875 115.6875 C224.0797168 115.65366211 224.0797168 115.65366211 222.43945312 115.61914062 C221.41142578 115.58369141 220.38339844 115.54824219 219.32421875 115.51171875 C217.9024231 115.47244263 217.9024231 115.47244263 216.4519043 115.43237305 C213.60304697 114.93000062 212.74302883 114.25856774 211 112 C208.85018406 107.92666453 208.30462738 104.55855385 209 100 C211.00260374 96.99609439 213.43848229 94.53184762 216 92 C216.66773438 91.319375 217.33546875 90.63875 218.0234375 89.9375 C219.66642392 88.27439538 221.32421314 86.62994467 223 85 C222.11032656 83.91160226 221.21288426 82.82955392 220.3125 81.75 C219.56419922 80.84507813 219.56419922 80.84507813 218.80078125 79.921875 C216.7086495 77.6890576 214.42150931 75.86460342 212 74 C211.08476562 74.92683594 210.16953125 75.85367188 209.2265625 76.80859375 C208.0261739 78.01836039 206.82564583 79.22798865 205.625 80.4375 C205.02171875 81.04916016 204.4184375 81.66082031 203.796875 82.29101562 C202.92675781 83.1659668 202.92675781 83.1659668 202.0390625 84.05859375 C201.50490723 84.59798584 200.97075195 85.13737793 200.42041016 85.69311523 C198.1201319 87.8095452 196.94540387 88.0041997 193.75 88.25 C188.8131626 87.92087751 185.50139672 86.50139672 182 83 C181.68115234 80.66162109 181.68115234 80.66162109 181.5859375 77.7734375 C181.54726563 76.7421875 181.50859375 75.7109375 181.46875 74.6484375 C181.4378125 73.56820312 181.406875 72.48796875 181.375 71.375 C181.33632813 70.28703125 181.29765625 69.1990625 181.2578125 68.078125 C181.16334154 65.38570255 181.08057419 62.69287416 181 60 C175.72 60 170.44 60 165 60 Z M159.625 115.625 C157.42092107 120.20270239 157.2028361 124.00552411 158 129 C160.32968931 133.83858548 163.16141452 136.67031069 168 139 C172.99447589 139.7971639 176.79729761 139.57907893 181.375 137.375 C184.95907713 134.13226355 187.59535241 131.53524104 188.3828125 126.6015625 C188.63883919 120.91777006 187.93626932 117.35061345 184 113 C179.64938655 109.06373068 176.08222994 108.36116081 170.3984375 108.6171875 C165.46475896 109.40464759 162.86773645 112.04092287 159.625 115.625 Z M-22 172 C-37.46722685 195.06346478 -37.46722685 195.06346478 -45 220 C-6.39 220 32.22 220 72 220 C87.46722685 196.93653522 87.46722685 196.93653522 95 172 C56.39 172 17.78 172 -22 172 Z M123 172 C128.61050602 188.83151805 138.0655463 204.1310926 146 220 C184.61 220 223.22 220 263 220 C257.38949398 203.16848195 247.9344537 187.8689074 240 172 C201.39 172 162.78 172 123 172 Z M100 200 C99.49549316 201.02472412 98.99098633 202.04944824 98.47119141 203.10522461 C96.60241349 206.89697528 94.72576446 210.6847835 92.84667969 214.47143555 C92.03364363 216.11261805 91.22276226 217.75486979 90.4140625 219.39819336 C89.25301408 221.75657297 88.08433646 224.11103124 86.9140625 226.46484375 C86.37176498 227.57266457 86.37176498 227.57266457 85.81851196 228.7028656 C83.22774341 233.88612829 83.22774341 233.88612829 81 235 C79.65727897 235.10298999 78.30971747 235.14640599 76.96310425 235.15821838 C75.69685715 235.17290161 75.69685715 235.17290161 74.4050293 235.18788147 C73.01320435 235.19651466 73.01320435 235.19651466 71.59326172 235.20532227 C70.61761261 235.21522186 69.6419635 235.22512146 68.63674927 235.23532104 C65.40108698 235.26699311 62.16540999 235.29171602 58.9296875 235.31640625 C56.69051728 235.33697085 54.45135099 235.35796718 52.21218872 235.37937927 C46.31031467 235.43465096 40.40840529 235.48403774 34.50646973 235.53222656 C27.42962264 235.59122209 20.3528403 235.65747805 13.27604675 235.72252655 C2.51740395 235.82060017 -8.24127982 235.90941242 -19 236 C-19 266.69 -19 297.38 -19 329 C-13.555 328.01 -13.555 328.01 -8 327 C1.88194551 325.22217335 10.57800851 325.66698415 20.29296875 327.94140625 C21.22606369 328.15685593 22.15915863 328.3723056 23.12052917 328.59428406 C37.33725973 331.94617653 51.41746946 335.85743298 65.51098633 339.68743896 C71.62776215 341.34867534 77.74674752 343.00175963 83.86557579 344.65541649 C85.98937667 345.23012136 88.11263041 345.80681138 90.23579407 346.38386536 C91.5060997 346.72810043 92.77640533 347.07233551 94.08520508 347.42700195 C95.20687576 347.731689 96.32854645 348.03637604 97.48420715 348.35029602 C99.72831698 349.04167443 99.72831698 349.04167443 101 349 C101 299.83 101 250.66 101 200 C100.67 200 100.34 200 100 200 Z M117 200 C117 250.49 117 300.98 117 353 C122.1754007 354.72513357 127.19428117 356.36010434 132.43066406 357.78710938 C140.84333038 360.10704759 147.59532517 362.44056722 153.75 368.875 C154.4925 369.57625 155.235 370.2775 156 371 C160.34765246 370.42314667 163.99183127 367.93989784 167.75 365.8125 C168.53439453 365.37252686 169.31878906 364.93255371 170.12695312 364.47924805 C178.67261032 359.6627709 187.13309594 354.69924437 195.59765625 349.7421875 C202.36320692 345.78222383 209.14777004 341.85580444 215.9375 337.9375 C217.00871094 337.3185083 218.07992187 336.6995166 219.18359375 336.06176758 C220.715 335.17847778 220.715 335.17847778 222.27734375 334.27734375 C223.16671631 333.76421631 224.05608887 333.25108887 224.97241211 332.72241211 C228.96450904 330.45128528 232.98507119 328.23051601 237 326 C237 296.3 237 266.6 237 236 C226.22408203 235.94392578 226.22408203 235.94392578 215.23046875 235.88671875 C210.68682467 235.85645269 206.14322042 235.82531375 201.59960938 235.79101562 C194.38340215 235.73662662 187.16727372 235.68551947 179.95092773 235.65356445 C174.13475389 235.62760781 168.31884362 235.58725977 162.50283241 235.53681374 C160.28084904 235.52009322 158.05882002 235.50861136 155.83678246 235.50238609 C152.73099326 235.49280135 149.6258863 235.46480959 146.52026367 235.43237305 C145.59597565 235.43380814 144.67168762 235.43524323 143.71939087 235.4367218 C142.87385147 235.42418365 142.02831207 235.41164551 141.15715027 235.39872742 C140.42248126 235.39411845 139.68781225 235.38950949 138.93088055 235.38476086 C136.41929602 234.88428484 135.59091831 233.97499079 134 232 C132.66708006 229.58506057 131.41657379 227.18210608 130.20703125 224.70703125 C129.85613937 224.00100266 129.5052475 223.29497406 129.14372253 222.56755066 C128.02763686 220.31862753 126.91998233 218.06567028 125.8125 215.8125 C125.05589133 214.28423141 124.29873609 212.75623329 123.54101562 211.22851562 C121.68766053 207.48878243 119.84185443 203.74540987 118 200 C117.67 200 117.34 200 117 200 Z M-115 332 C-115 374.24 -115 416.48 -115 460 C-99.16 460 -83.32 460 -67 460 C-67 417.76 -67 375.52 -67 332 C-82.84 332 -98.68 332 -115 332 Z M236.9375 344.625 C236.08027344 345.11718018 235.22304688 345.60936035 234.33984375 346.11645508 C231.54846763 347.72545681 228.77416225 349.36152687 226 351 C224.11671777 352.09648295 222.23259454 353.19152264 220.34765625 354.28515625 C216.37739354 356.59242218 212.41372828 358.9105726 208.453125 361.234375 C200.27001934 366.02436174 192.03078698 370.71540736 183.79101562 375.40698242 C181.59918898 376.65567594 179.41027983 377.90950726 177.22460938 379.16894531 C175.0144496 380.4239573 172.78522062 381.64580169 170.54101562 382.83886719 C168.90422852 383.72880371 168.90422852 383.72880371 167.234375 384.63671875 C166.25178711 385.15580811 165.26919922 385.67489746 164.25683594 386.2097168 C161.76888686 387.83525181 161.76888686 387.83525181 161.17041016 390.71923828 C160.96345541 393.40648344 160.96345541 393.40648344 161.0390625 396.23046875 C160.93992198 403.25953196 156.69657047 409.20343361 152.0625 414.20703125 C145.21295864 420.16146209 137.08162112 422.4292855 128.16113281 422.31298828 C120.91165105 421.59520672 113.88120294 419.35969097 106.875 417.4375 C105.07035636 416.95140348 103.2654162 416.46640667 101.46020508 415.98242188 C97.50231783 414.91968838 93.54641695 413.84988106 89.59130859 412.77685547 C83.67339163 411.17581941 77.7467279 409.60935818 71.81762695 408.05030823 C66.70129781 406.70495843 61.58678196 405.35279351 56.47247314 403.99978638 C53.95428091 403.3346154 51.43552324 402.67158126 48.91619873 402.01071167 C45.36266164 401.07716726 41.81193891 400.13356855 38.26171875 399.1875 C37.19581009 398.90975235 36.12990143 398.6320047 35.0316925 398.34584045 C34.04501083 398.08089279 33.05832916 397.81594513 32.04174805 397.54296875 C31.18469772 397.31633545 30.3276474 397.08970215 29.44462585 396.85620117 C25.95779944 395.63498163 22.70128997 394.40257994 21 391 C20.7178446 387.75521295 20.6055447 385.69689656 22.22863102 382.82933903 C24 381 24 381 26.14544582 380.52813625 C32.23130394 380.72077584 37.68420219 381.63221304 43.52954102 383.31079102 C44.87066956 383.67895935 44.87066956 383.67895935 46.2388916 384.05456543 C48.16261696 384.5842872 50.08476782 385.11975481 52.00543404 385.66046333 C55.05081502 386.51710126 58.10039741 387.35694855 61.15159607 388.19261169 C68.72408056 390.26981903 76.28961833 392.37181123 83.8536377 394.47961426 C90.25935918 396.26439361 96.66831148 398.03643984 103.0825634 399.79032707 C106.07787418 400.61485844 109.06754806 401.45796675 112.05751038 402.301651 C113.90468639 402.80829347 115.7521211 403.31399402 117.59985352 403.81860352 C118.83217964 404.17464912 118.83217964 404.17464912 120.08940125 404.53788757 C126.94198127 406.37281741 132.97610574 406.56794517 139.375 403.25 C143.76623988 399.4860801 145.58716231 395.96971714 146.12890625 390.12109375 C145.83242902 385.24269576 143.45987113 381.44051816 140.04785156 378.07373047 C135.87961148 375.23769784 131.68161414 374.2184944 126.8359375 372.9609375 C125.80315674 372.68223816 124.77037598 372.40353882 123.70629883 372.11639404 C120.26554523 371.19091186 116.82040702 370.28299067 113.375 369.375 C110.95884226 368.72884075 108.54299522 368.08151873 106.12744141 367.43310547 C100.90953537 366.03438029 95.68979166 364.64281266 90.46875 363.25585938 C82.2908981 361.0823453 74.12062485 358.88108867 65.95148849 356.67507553 C59.09316278 354.82318421 52.23410657 352.97399678 45.375 351.125 C44.63074516 350.92436699 43.88649033 350.72373398 43.11968231 350.51702118 C38.81541741 349.35701058 34.51065178 348.19888855 30.20516968 347.04340363 C28.26205647 346.52154153 26.31937663 345.99806665 24.37670898 345.47454834 C22.62861938 345.00592377 22.62861938 345.00592377 20.84521484 344.52783203 C19.83196136 344.25552765 18.81870789 343.98322327 17.77474976 343.70266724 C7.09957439 340.99932581 -2.16049756 341.87378016 -12.7578125 344.58984375 C-13.8274826 344.85382462 -14.89715271 345.11780548 -15.99923706 345.38978577 C-18.23762894 345.94457784 -20.47453408 346.50540062 -22.70996094 347.07202148 C-26.14728423 347.94314753 -29.58867953 348.79635529 -33.03125 349.64648438 C-35.21119144 350.18908495 -37.39088841 350.73266889 -39.5703125 351.27734375 C-41.11853195 351.66332985 -41.11853195 351.66332985 -42.69802856 352.05711365 C-43.64346527 352.29728714 -44.58890198 352.53746063 -45.56298828 352.78491211 C-46.81560959 353.10134926 -46.81560959 353.10134926 -48.09353638 353.42417908 C-49.99093146 353.8334464 -49.99093146 353.8334464 -51 355 C-51.09509559 357.61688441 -51.12556 360.207289 -51.11352539 362.82446289 C-51.11367142 363.64390884 -51.11381744 364.4633548 -51.1139679 365.30763245 C-51.11326852 368.02933353 -51.10547501 370.75096705 -51.09765625 373.47265625 C-51.09579216 375.35452741 -51.09436821 377.23639906 -51.09336853 379.11827087 C-51.08954267 384.08148529 -51.07971181 389.04467064 -51.06866455 394.00787354 C-51.0584519 399.06839606 -51.05387122 404.12892327 -51.04882812 409.18945312 C-51.0380896 419.12631488 -51.02101236 429.06315503 -51 439 C-47.4294404 440.81795396 -43.84166072 442.59914798 -40.25 444.375 C-38.75533203 445.13683594 -38.75533203 445.13683594 -37.23046875 445.9140625 C-36.23144531 446.40390625 -35.23242188 446.89375 -34.203125 447.3984375 C-33.30239258 447.84880371 -32.40166016 448.29916992 -31.47363281 448.76318359 C-22.47745827 451.96634779 -13.16591969 452.2945522 -3.70483398 452.25878906 C-1.95843628 452.26404602 -1.95843628 452.26404602 -0.17675781 452.26940918 C3.633526 452.27813997 7.44362088 452.27240839 11.25390625 452.265625 C13.92325568 452.26697404 16.59259959 452.26891409 19.26194763 452.27142334 C24.84058644 452.27504599 30.41917203 452.27030832 35.99780273 452.26074219 C42.42010655 452.24985556 48.84228337 452.25339158 55.26458412 452.264395 C60.80976137 452.27351026 66.35490068 452.2747327 71.90008301 452.26951766 C75.19842847 452.26642182 78.49670217 452.26672387 81.79504585 452.27259064 C85.4748593 452.27770098 89.15443281 452.26988258 92.83422852 452.25878906 C93.9072673 452.26283752 94.98030609 452.26688599 96.08586121 452.27105713 C105.62954608 452.21807608 114.49834736 451.26664598 123.0625 446.8125 C124.04089844 446.30517334 124.04089844 446.30517334 125.0390625 445.78759766 C136.22235139 439.88897092 147.08994961 433.38347177 158 427 C160.03106419 425.81478568 162.0623079 424.62987896 164.09375 423.4453125 C167.05079038 421.72065659 170.00757568 419.9955743 172.96337891 418.26879883 C183.524178 412.10127141 194.12041269 405.99553299 204.71777344 399.89111328 C207.98174327 398.01051894 211.24494189 396.12859454 214.5078125 394.24609375 C215.58095703 393.62710205 216.65410156 393.00811035 217.75976562 392.37036133 C219.90761867 391.13055556 222.05476309 389.88952127 224.20117188 388.6472168 C229.26695217 385.71745587 234.33922019 382.80132272 239.43914795 379.93145752 C241.84259235 378.57790558 244.24175442 377.21686229 246.640625 375.85522461 C248.331815 374.89940706 250.02912133 373.95443714 251.7265625 373.00976562 C252.75265625 372.42646484 253.77875 371.84316406 254.8359375 371.2421875 C255.73876465 370.7354248 256.6415918 370.22866211 257.57177734 369.70654297 C261.74141993 366.77613862 264.75908424 362.96366306 266 358 C266.26314683 352.83452512 265.51493341 349.0975395 262.1875 345.0625 C259.52879993 342.17141997 256.88193642 340.33005369 252.95922852 339.64208984 C246.51867739 339.47331614 242.39299815 341.35784973 236.9375 344.625 Z M-179 348 C-179 379.68 -179 411.36 -179 444 C-163.16 444 -147.32 444 -131 444 C-131 412.32 -131 380.64 -131 348 C-146.84 348 -162.68 348 -179 348 Z " fill="#000000" transform="translate(211,20)"/>
</svg>
