<?xml version="1.0" standalone="no"?>
<!DOCTYPE svg PUBLIC "-//W3C//DTD SVG 20010904//EN"
 "http://www.w3.org/TR/2001/REC-SVG-20010904/DTD/svg10.dtd">
<svg version="1.0" xmlns="http://www.w3.org/2000/svg"
 width="512.000000pt" height="512.000000pt" viewBox="0 0 512.000000 512.000000"
 preserveAspectRatio="xMidYMid meet">

<g transform="translate(0.000000,512.000000) scale(0.100000,-0.100000)"
fill="#000000" stroke="none">
<path d="M920 4834 c-162 -43 -309 -165 -379 -315 -22 -46 -44 -111 -50 -143
-15 -84 -15 -3548 0 -3632 38 -208 212 -397 419 -453 73 -21 96 -21 1112 -21
709 0 1054 3 1090 11 98 20 214 84 288 159 74 75 140 194 159 288 7 34 11 239
10 580 l0 527 -23 -61 c-48 -130 -111 -204 -215 -253 -48 -22 -69 -26 -151
-26 -82 0 -103 4 -152 27 -70 32 -138 94 -168 152 -23 42 -25 44 -84 50 -35 3
-88 19 -126 37 -57 27 -97 62 -337 302 -225 226 -276 282 -297 328 -54 118
-54 220 0 338 21 46 72 102 297 328 240 240 280 275 337 302 189 88 401 16
495 -169 13 -26 28 -67 31 -91 7 -41 9 -38 69 139 63 184 86 231 146 291 32
32 140 91 167 91 16 0 17 693 1 772 -43 207 -224 394 -430 443 -94 22 -2125
21 -2209 -1z m1885 -485 c-85 -214 -115 -259 -205 -308 l-65 -36 -505 0 -505
0 -53 24 c-95 43 -139 104 -221 308 -39 98 -71 181 -71 186 0 4 382 7 849 7
l849 0 -73 -181z m-268 -3255 c98 -73 98 -195 0 -268 -28 -20 -40 -21 -490
-24 -307 -2 -474 0 -499 8 -101 29 -140 168 -71 251 50 59 44 59 560 56 461
-2 472 -2 500 -23z"/>
<path d="M3585 3406 c-67 -29 -72 -43 -324 -798 -133 -398 -241 -734 -241
-748 1 -72 63 -142 138 -156 46 -9 117 20 146 59 14 20 116 312 265 759 236
710 242 728 231 770 -26 98 -128 152 -215 114z"/>
<path d="M2775 3178 c-35 -7 -74 -42 -298 -266 -142 -141 -265 -269 -273 -284
-8 -15 -14 -45 -14 -68 0 -23 6 -53 14 -68 22 -40 527 -539 555 -547 126 -38
231 60 206 192 -6 32 -36 67 -198 230 l-191 193 186 188 c103 103 191 200 197
215 47 124 -55 242 -184 215z"/>
<path d="M3981 3179 c-71 -15 -123 -79 -123 -153 0 -24 6 -55 12 -68 7 -12 96
-107 198 -210 l187 -188 -187 -187 c-102 -104 -191 -199 -198 -211 -25 -50
-12 -129 29 -176 41 -47 131 -62 187 -33 16 9 145 132 286 274 356 358 356
308 0 666 -141 142 -266 263 -277 269 -32 18 -78 25 -114 17z"/>
</g>
</svg>
