<?xml version="1.0" standalone="no"?>
<!DOCTYPE svg PUBLIC "-//W3C//DTD SVG 20010904//EN"
 "http://www.w3.org/TR/2001/REC-SVG-20010904/DTD/svg10.dtd">
<svg version="1.0" xmlns="http://www.w3.org/2000/svg"
 width="512.000000pt" height="512.000000pt" viewBox="0 0 512.000000 512.000000"
 preserveAspectRatio="xMidYMid meet">

<g transform="translate(0.000000,512.000000) scale(0.100000,-0.100000)"
fill="#000000" stroke="none">
<path d="M2272 4790 c-33 -14 -39 -39 -46 -225 -4 -93 -12 -187 -17 -208 -17
-64 -63 -99 -185 -141 -60 -21 -165 -64 -234 -97 -191 -90 -206 -86 -396 86
-164 149 -166 151 -203 136 -40 -17 -431 -413 -431 -437 0 -27 20 -54 130
-174 137 -149 150 -169 157 -232 4 -49 1 -61 -52 -167 -31 -63 -74 -166 -95
-229 -70 -200 -80 -207 -359 -220 -185 -8 -195 -10 -213 -31 -17 -21 -18 -46
-18 -307 0 -289 5 -329 39 -338 9 -2 59 -7 112 -11 l95 -7 37 75 c60 120 162
199 299 232 97 23 233 18 329 -11 14 -4 17 11 23 108 13 211 56 370 149 552
157 309 424 538 757 651 259 89 577 90 832 5 259 -87 491 -253 654 -469 79
-105 175 -295 209 -416 32 -112 55 -257 55 -354 l0 -73 28 6 c15 4 70 9 123
13 222 13 391 -73 476 -244 l36 -73 46 1 c111 1 193 15 207 34 11 15 14 79 14
315 0 285 -1 298 -20 315 -17 16 -48 20 -203 27 -100 4 -198 13 -218 18 -60
16 -102 73 -139 186 -18 54 -58 154 -90 221 -68 143 -75 168 -60 222 11 42 34
71 188 239 69 76 92 108 92 129 0 22 -40 67 -209 237 -179 179 -213 209 -239
209 -24 0 -56 -23 -166 -124 -75 -68 -151 -132 -169 -141 -59 -32 -107 -24
-240 41 -67 33 -167 74 -222 92 -108 35 -156 64 -185 112 -22 35 -27 76 -36
281 -6 139 -8 151 -30 173 l-23 23 -283 -1 c-156 0 -293 -4 -306 -9z"/>
<path d="M2480 3179 c-135 -11 -235 -53 -331 -138 -105 -92 -159 -228 -167
-416 -12 -306 111 -560 323 -665 198 -98 456 -69 617 70 94 82 175 237 205
394 23 121 14 297 -21 399 -88 261 -303 383 -626 356z"/>
<path d="M899 2375 c-108 -34 -191 -116 -224 -221 -26 -79 -26 -235 -1 -319
62 -209 222 -317 422 -285 169 27 276 148 311 349 27 155 -14 320 -100 397
-70 64 -137 87 -257 91 -73 2 -119 -2 -151 -12z"/>
<path d="M3955 2377 c-174 -58 -250 -177 -249 -392 2 -291 189 -475 443 -434
196 31 313 194 315 439 1 187 -56 295 -192 362 -60 30 -75 33 -172 35 -66 2
-120 -2 -145 -10z"/>
<path d="M2366 1558 c5 -7 32 -47 62 -88 114 -159 116 -177 37 -463 -31 -110
-55 -205 -53 -212 5 -19 142 -275 148 -275 7 0 144 260 148 280 2 9 -22 105
-53 213 -79 280 -77 298 37 457 30 41 57 81 62 88 6 9 -36 12 -194 12 -158 0
-200 -3 -194 -12z"/>
<path d="M1781 1455 c-111 -60 -161 -98 -247 -187 -113 -116 -190 -252 -235
-413 -19 -69 -23 -111 -27 -307 l-4 -228 216 0 216 0 0 161 c0 187 10 218 66
219 47 0 53 -24 56 -206 l3 -169 365 -3 c327 -2 363 -1 343 13 -12 8 -160 273
-330 590 -195 364 -313 574 -323 574 -8 1 -53 -20 -99 -44z"/>
<path d="M2917 925 c-170 -317 -318 -582 -330 -590 -20 -14 16 -15 343 -13
l365 3 3 169 c3 182 9 206 56 206 55 -1 66 -37 66 -226 l0 -154 216 0 216 0
-5 228 c-4 194 -7 239 -26 307 -74 266 -255 487 -498 609 -40 20 -78 36 -85
36 -7 -1 -152 -259 -321 -575z"/>
<path d="M680 1154 c-101 -26 -179 -72 -260 -153 -133 -132 -189 -263 -197
-466 -5 -114 -4 -122 19 -155 40 -59 54 -61 502 -58 l401 3 6 230 c5 190 10
244 28 310 25 95 63 194 97 252 13 23 24 44 24 47 0 3 -127 6 -282 5 -214 0
-296 -4 -338 -15z"/>
<path d="M3820 1164 c0 -3 11 -24 24 -47 34 -58 72 -157 97 -252 18 -66 23
-120 28 -310 l6 -230 401 -3 c448 -3 462 -1 502 58 23 33 24 41 19 155 -5 133
-31 232 -90 335 -46 82 -169 200 -247 238 -117 57 -156 62 -462 62 -153 0
-278 -3 -278 -6z"/>
</g>
</svg>
